<?xml version="1.0" standalone="no"?>
<!DOCTYPE svg PUBLIC "-//W3C//DTD SVG 1.1//EN" "http://www.w3.org/Graphics/SVG/1.1/DTD/svg11.dtd" >
<svg>
<metadata>
Created by FontForge 20090914 at Wed Jun 12 20:47:08 2013
 By www-data
Copyright 1990-1993 Bitstream Inc.  All rights reserved.
</metadata>
<defs>
<font id="AvantGardeITCbyBT-Medium" horiz-adv-x="1024" >
  <font-face 
    font-family="AvantGarde Md BT"
    font-weight="400"
    font-stretch="normal"
    units-per-em="2048"
    panose-1="2 11 6 2 2 2 2 2 2 4"
    ascent="1638"
    descent="-410"
    x-height="1100"
    cap-height="1456"
    bbox="-342 -483 2574 1972"
    underline-thickness="143"
    underline-position="-107"
    unicode-range="U+0020-U+F002"
  />
<missing-glyph horiz-adv-x="1229" 
d="M102 -362v1806h1024v-1806h-1024zM217 -248h795v1577h-795v-1577z" />
    <glyph glyph-name=".notdef" horiz-adv-x="1229" 
d="M102 -362v1806h1024v-1806h-1024zM217 -248h795v1577h-795v-1577z" />
    <glyph glyph-name="space" unicode=" " horiz-adv-x="586" 
 />
    <glyph glyph-name="exclam" unicode="!" horiz-adv-x="594" 
d="M199 360v1096h196v-1096h-196zM199 0v233h196v-233h-196z" />
    <glyph glyph-name="quotedbl" unicode="&#x22;" horiz-adv-x="614" 
d="M524 1436v-555h-139v555h139zM229 1436v-555h-139v555h139z" />
    <glyph glyph-name="numbersign" unicode="#" horiz-adv-x="1575" 
d="M969 858h-260l-93 -264h261zM924 1458l-162 -454h256l164 454h164l-160 -454h301l-51 -146h-303l-93 -262h322l-51 -147h-322l-162 -453h-165l161 453h-258l-162 -453h-165l159 453h-309l53 147h310l92 262h-330l51 146h332l162 454h166z" />
    <glyph glyph-name="dollar" unicode="$" horiz-adv-x="1171" 
d="M136 432h185.002c4 -79.333 26.167 -139 66.5 -179s98.833 -60 175.5 -60c70 0 125.833 21.333 167.5 64s62.5 99.667 62.5 171c0 25.333 -2.5 48.666 -7.5 69.999s-12.167 39.666 -21.5 54.999c-31.333 51.333 -96 88.666 -194 111.999l-36 9
c-122 31.333 -211.833 77.333 -269.5 138s-86.5 139.667 -86.5 237c0 106 27.5 194.333 82.5 265s130.5 114.667 226.5 132v211h179v-213c86 -13.333 155 -52.166 207 -116.499s81 -147.166 87 -248.499h-192c-4 57.333 -23.667 102.833 -59 136.5s-81.333 50.5 -138 50.5
c-60.667 0 -109.167 -18.667 -145.5 -56s-54.5 -87 -54.5 -149c0 -22.667 3.16699 -43.334 9.5 -62.001s16.166 -35.667 29.499 -51c26.667 -31.333 83.667 -56.666 171 -75.999c52 -11.333 91.667 -22 119 -32c95.333 -34 167.666 -84 216.999 -150s74 -145 74 -237
c0 -116.667 -30.167 -215.667 -90.5 -297s-138.5 -128.666 -234.5 -141.999v-256h-179v246c-107.333 14.667 -192.5 60.167 -255.5 136.5s-94.833 173.5 -95.5 291.5z" />
    <glyph glyph-name="percent" unicode="%" horiz-adv-x="1796" 
d="M240 1126c0 -54.667 19.167 -101 57.5 -139s85.166 -57 140.499 -57s102 18.833 140 56.5s57 84.167 57 139.5s-19 102 -57 140s-84.667 57 -140 57s-102.166 -19 -140.499 -57s-57.5 -84.667 -57.5 -140zM82 1126c0 48.667 9 94.834 27 138.501s43.667 82.167 77 115.5
c34 34 72.833 60 116.5 78s89.5 27 137.5 27c48.667 0 94.834 -9 138.501 -27s82.167 -44 115.5 -78c34 -33.333 60 -71.833 78 -115.5s27 -89.834 27 -138.501s-9 -94.5 -27 -137.5s-44 -81.833 -78 -116.5c-33.333 -33.333 -71.833 -59 -115.5 -77
s-89.834 -27 -138.501 -27c-48 0 -93.833 9 -137.5 27s-82.5 43.667 -116.5 77c-33.333 34 -59 72.833 -77 116.5s-27 89.5 -27 137.5zM1217 1485h141l-776 -1516h-146zM1155 330c0 -55.333 19.333 -102.333 58 -141s85.667 -58 141 -58c54.667 0 101 19.167 139 57.5
s57 85.5 57 141.5c0 55.333 -18.833 101.833 -56.5 139.5s-84.167 56.5 -139.5 56.5c-56 0 -103.167 -19 -141.5 -57s-57.5 -84.333 -57.5 -139zM997 330c0 48 9 93.832 27 137.499s44 82.5 78 116.5c33.333 33.333 71.833 59 115.5 77s89.834 27 138.501 27
c48 0 93.833 -9 137.5 -27s82.5 -43.667 116.5 -77c33.333 -34 59 -72.833 77 -116.5s27 -89.5 27 -137.5c0 -48.667 -8.83301 -94.667 -26.5 -138s-43.5 -82 -77.5 -116s-72.833 -60 -116.5 -78s-89.5 -27 -137.5 -27c-48.667 0 -94.834 9 -138.501 27
s-82.167 44 -115.5 78c-34 33.333 -60 71.833 -78 115.5s-27 89.834 -27 138.501z" />
    <glyph glyph-name="ampersand" unicode="&#x26;" horiz-adv-x="1421" 
d="M569 922c55.333 28.667 96.499 60.332 123.499 94.999s40.5 72.334 40.5 113.001c0 42.667 -14.167 79 -42.5 109s-63.166 45 -104.499 45c-42.667 0 -78.667 -14.333 -108 -43s-44 -64.667 -44 -108c0 -40 10 -75.667 30 -107s55 -66 105 -104zM839.999 411.998
l-301 284c-70.667 -40.667 -122.167 -84 -154.5 -130s-48.5 -98 -48.5 -156c0 -66.667 21 -122 63 -166s94.667 -66 158 -66c59.333 0 112.5 19.5 159.5 58.5s88.167 97.5 123.5 175.5zM992.999 273.998c-54 -100.667 -117.333 -176.334 -190 -227.001s-154 -76 -244 -76
c-117.333 0 -218 42.667 -302 128s-126 187.666 -126 306.999c0 84.667 22 160.5 66 227.5s113.667 130.167 209 189.5c-58.667 46 -101.334 93.167 -128.001 141.5s-40 101.5 -40 159.5c0 100 33.833 183.5 101.5 250.5s152.5 100.5 254.5 100.5
c90.667 0 169.334 -34.167 236.001 -102.5s100 -148.166 100 -239.499c0 -66.667 -19.333 -127.167 -58 -181.5s-96.667 -103.166 -174 -146.499l222 -209l141 362h213l-199 -499l342 -307l-127 -144z" />
    <glyph glyph-name="quotesingle" unicode="'" horiz-adv-x="317" 
d="M229 1436v-555h-139v555h139z" />
    <glyph glyph-name="parenleft" unicode="(" horiz-adv-x="569" 
d="M516 -190v-238c-140.667 57.333 -241 133.166 -301 227.499s-90 226.166 -90 395.499v679c0 153.333 31.833 279.833 95.5 379.5s162.167 176.834 295.5 231.501v-244c-67.333 -34 -114.833 -78.667 -142.5 -134s-41.5 -143.666 -41.5 -264.999v-590
c0 -137.333 13.667 -236 41 -296s75 -108.667 143 -146z" />
    <glyph glyph-name="parenright" unicode=")" horiz-adv-x="569" 
d="M51 -190c68.667 37.333 116.999 86.502 144.999 147.502s42 159.167 42 294.5v590c0 119.333 -14 207 -42 263s-76.333 101.333 -145 136v244c134 -55.333 233 -132.833 297 -232.5s96 -225.834 96 -378.501v-679c0 -168.667 -30.167 -300.334 -90.5 -395.001
s-161.166 -170.667 -302.499 -228v238z" />
    <glyph glyph-name="asterisk" unicode="*" 
d="M512 934l-176 -254l-137 94l194 246l-284 78l53 157l272 -94v295h154v-295l274 94l56 -157l-289 -78l196 -244l-135 -96z" />
    <glyph glyph-name="plus" unicode="+" horiz-adv-x="1706" 
d="M924 1221v-541h528v-139h-528v-541h-142v541h-528v139h528v541h142z" />
    <glyph glyph-name="comma" unicode="," horiz-adv-x="586" 
d="M195 -242l-0.000976562 125c24.667 5.33301 42.334 16.333 53.001 33s16 42 16 76v20h-69v234h196v-215c0 -80.667 -15.833 -143 -47.5 -187s-81.167 -72.667 -148.5 -86z" />
    <glyph glyph-name="hyphen" unicode="-" horiz-adv-x="678" 
d="M588 457h-498v184h498v-184z" />
    <glyph glyph-name="period" unicode="." horiz-adv-x="586" 
d="M393 0h-200v246h200v-246z" />
    <glyph glyph-name="slash" unicode="/" horiz-adv-x="569" 
d="M92 -190h-149l479 1675h147z" />
    <glyph glyph-name="zero" unicode="0" horiz-adv-x="1171" 
d="M88 512l0.000976562 430.001c0 90 6.83301 159.5 20.5 208.5s36.167 94.167 67.5 135.5c48.667 64 108 112.833 178 146.5s147.333 50.5 232 50.5c88 0 167.833 -18 239.5 -54s131.834 -88.333 180.501 -157c26.667 -38.667 46.167 -83.334 58.5 -134.001
s18.5 -113.334 18.5 -188.001v-444c0 -79.333 -6.33301 -145 -19 -197s-32.667 -97 -60 -135c-46.667 -64.667 -106.334 -114.667 -179.001 -150s-152.334 -53 -239.001 -53c-84 0 -161.333 16.833 -232 50.5s-131.334 82.5 -182.001 146.5
c-29.333 37.333 -50.666 82.833 -63.999 136.5s-20 122.834 -20 207.501zM305.001 475.001l-0.000976562 -21.999c0 -46.667 2.66699 -81.167 8 -103.5s14.333 -42.5 27 -60.5c24.667 -36.667 58.5 -65.334 101.5 -86.001s89.833 -31 140.5 -31
c94.667 0 165.334 25.667 212.001 77s70 129.333 70 234v488c0 60.667 -2.66699 103.167 -8 127.5s-14.333 45.833 -27 64.5c-24.667 37.333 -58.667 66.5 -102 87.5s-91 31.5 -143 31.5c-50.667 0 -97 -9.83301 -139 -29.5s-75.667 -47.5 -101 -83.5
c-14 -19.333 -24 -42.833 -30 -70.5s-9 -69.5 -9 -125.5v-498z" />
    <glyph glyph-name="one" unicode="1" horiz-adv-x="1171" 
d="M711 0h-213v1284h-254v172h467v-1456z" />
    <glyph glyph-name="two" unicode="2" horiz-adv-x="1171" 
d="M1044 0l-921.001 -0.000976562v203l510 489l8 8c134 129.333 201 236.666 201 321.999c0 74.667 -25 137 -75 187s-113 75 -189 75c-80.667 0 -143.5 -25.667 -188.5 -77s-67.5 -122.666 -67.5 -213.999v-16h-199v4c0 151.333 43.333 272.833 130 364.5
s201 137.5 343 137.5c126.667 0 233.834 -44.167 321.501 -132.5s131.5 -195.166 131.5 -320.499c0 -70.667 -16.5 -137.667 -49.5 -201s-86.833 -130 -161.5 -200l-453 -426h659v-203z" />
    <glyph glyph-name="three" unicode="3" horiz-adv-x="1171" 
d="M104 446l197.001 0.000976562c3.33301 -82 29.666 -148.833 78.999 -200.5s111 -77.5 185 -77.5c80 0 146.833 27.167 200.5 81.5s80.5 121.5 80.5 201.5c0 90 -27.5 159.833 -82.5 209.5s-132.833 74.5 -233.5 74.5c-14 0 -24.667 -0.166992 -32 -0.5
s-13.666 -0.5 -18.999 -0.5v197c4.66699 0 10.167 -0.166992 16.5 -0.5s15.166 -0.5 26.499 -0.5c74.667 0 131 15.167 169 45.5s57 75.833 57 136.5c0 51.333 -16 93.833 -48 127.5s-72 50.5 -120 50.5c-54 0 -96.667 -15.667 -128 -47s-48.333 -75 -51 -131h-192
c4 113.333 40.333 203.833 109 271.5s158 101.5 268 101.5c100.667 0 186.167 -35.333 256.5 -106s105.5 -155.667 105.5 -255c0 -60 -11.333 -112 -34 -156s-58.334 -82.667 -107.001 -116c78 -30.667 137.833 -79.667 179.5 -147s62.5 -148 62.5 -242
c0 -138.667 -45.167 -255.334 -135.5 -350.001s-202.166 -142 -335.499 -142c-144.667 0 -259 42.167 -343 126.5s-127.667 200.5 -131 348.5z" />
    <glyph glyph-name="four" unicode="4" horiz-adv-x="1171" 
d="M932 0h-203v254h-641v186l641 1016h203v-1016h147v-186h-147v-254zM729 440v715l-436 -715h436z" />
    <glyph glyph-name="five" unicode="5" horiz-adv-x="1171" 
d="M78 444l204.997 -0.000976562c10.667 -81.333 42.5 -146.333 95.5 -195s117.833 -73 194.5 -73c88.667 0 162.167 30 220.5 90s87.5 136 87.5 228c0 90.667 -28.667 164.167 -86 220.5s-132.666 84.5 -225.999 84.5c-55.333 0 -103.666 -10.667 -144.999 -32
s-74 -52.333 -98 -93l-181 39l136 743h673v-205h-524l-70 -342c33.333 30.667 70.5 53.334 111.5 68.001s86.5 22 136.5 22c136 0 250.667 -49 344 -147s140 -218 140 -360c0 -148 -50.5 -271.833 -151.5 -371.5s-228.167 -149.5 -381.5 -149.5
c-140.667 0 -254.167 42.5 -340.5 127.5s-133.166 200.167 -140.499 345.5z" />
    <glyph glyph-name="six" unicode="6" horiz-adv-x="1171" 
d="M616 1456l231.998 0.000976562l-330 -495c20.667 8 40.334 14 59.001 18s36.667 6 54 6c126.667 0 234.834 -47.833 324.501 -143.5s134.5 -210.834 134.5 -345.501c0 -45.333 -6.16699 -90.5 -18.5 -135.5s-30.833 -89.5 -55.5 -133.5
c-46 -84 -105.833 -147.667 -179.5 -191s-158.5 -65 -254.5 -65c-68.667 0 -133.167 12.667 -193.5 38s-114.166 62 -161.499 110c-46.667 48 -82.834 102.333 -108.501 163s-38.5 122.334 -38.5 185.001c0 125.333 72.333 295.666 217 510.999v1zM278.998 498.001
c0 -89.333 29.5 -165.333 88.5 -228s129.833 -94 212.5 -94c87.333 0 159.333 29.167 216 87.5s85 132.833 85 223.5s-27.833 165 -83.5 223s-126.167 87 -211.5 87s-157.833 -29.5 -217.5 -88.5s-89.5 -129.167 -89.5 -210.5z" />
    <glyph glyph-name="seven" unicode="7" horiz-adv-x="1171" 
d="M483 0h-223l555 1255h-618v201h819v-221z" />
    <glyph glyph-name="eight" unicode="8" horiz-adv-x="1171" 
d="M332 440c0 -78 23.665 -142.5 70.998 -193.5s106.333 -76.5 177 -76.5c74.667 0 136.334 25 185.001 75s73 113.667 73 191c0 80 -23.167 144.333 -69.5 193s-107.166 73 -182.499 73c-76.667 0 -138.167 -23.833 -184.5 -71.5s-69.5 -111.167 -69.5 -190.5z
M402.998 1100c0 -60.667 16.334 -108.999 49.001 -144.999s76.667 -54 132 -54c57.333 0 102.333 17.167 135 51.5s49 82.166 49 143.499c0 56.667 -16.833 103.167 -50.5 139.5s-76.834 54.5 -129.501 54.5c-53.333 0 -97.5 -18 -132.5 -54s-52.5 -81.333 -52.5 -136z
M347.999 807.001c-49.333 34 -86.833 75.8311 -112.5 125.498s-38.5 104.834 -38.5 165.501c0 106 37.333 196.667 112 272s165.667 113 273 113c112 0 205.5 -37.167 280.5 -111.5s112.5 -166.166 112.5 -275.499c0 -61.333 -13.5 -116.666 -40.5 -165.999
s-66.167 -90.333 -117.5 -123c72.667 -32 127.667 -78.5 165 -139.5s56 -134.833 56 -221.5c0 -138 -43 -251.667 -129 -341s-196.333 -134 -331 -134c-125.333 0 -230.833 45.167 -316.5 135.5s-128.5 200.833 -128.5 331.5c0 88 17.5 162.167 52.5 222.5
s89.167 109.166 162.5 146.499z" />
    <glyph glyph-name="nine" unicode="9" horiz-adv-x="1171" 
d="M891 956c0 90 -29.335 166.167 -88.002 228.5s-129.667 93.5 -213 93.5c-91.333 0 -164.666 -28.333 -219.999 -85s-83 -132 -83 -226c0 -90 27.833 -163.833 83.5 -221.5s126.834 -86.5 213.501 -86.5c86 0 158.667 29 218 87s89 128 89 210zM554.998 0h-235.998
l330 494c-20.667 -8.66699 -40.334 -15 -59.001 -19s-36.334 -6 -53.001 -6c-127.333 0 -235.666 47.833 -324.999 143.5s-134 210.834 -134 345.501c0 45.333 6.33301 91 19 137s31.667 91.333 57 136c44.667 81.333 104.5 144 179.5 188s159.167 66 252.5 66
c68.667 0 133 -12.5 193 -37.5s113.667 -61.833 161 -110.5s84.166 -103.334 110.499 -164.001s39.5 -122 39.5 -184c0 -124.667 -70 -291.667 -210 -501l-5 -8z" />
    <glyph glyph-name="colon" unicode=":" horiz-adv-x="592" 
d="M397 807h-202v246h202v-246zM397 0h-202v246h202v-246z" />
    <glyph glyph-name="semicolon" unicode=";" horiz-adv-x="592" 
d="M397 807h-200v246h200v-246zM199 -242v125.001c24.667 5.33301 42.334 16.166 53.001 32.499s16 41.166 16 74.499v20h-71v236h200v-217c0 -79.333 -16.333 -141.166 -49 -185.499s-82.334 -72.833 -149.001 -85.5z" />
    <glyph glyph-name="less" unicode="&#x3c;" horiz-adv-x="1706" 
d="M1442 1006l-969 -396l969 -393v-154l-1178 484v129l1178 483v-153z" />
    <glyph glyph-name="equal" unicode="=" horiz-adv-x="1706" 
d="M1452 481v-139h-1198v139h1198zM1452 879v-140h-1198v140h1198z" />
    <glyph glyph-name="greater" unicode="&#x3e;" horiz-adv-x="1706" 
d="M1442 676v-129l-1178 -484v154l971 393l-971 396v153z" />
    <glyph glyph-name="question" unicode="?" horiz-adv-x="995" 
d="M348 0v236h197v-236h-197zM349 381c0.666992 69.333 12.834 135.334 36.501 198.001s58.167 121.667 103.5 177c15.333 18 38.666 42.333 69.999 73c80.667 79.333 121 154.666 121 225.999c0 70 -21.833 126.667 -65.5 170s-101.167 65 -172.5 65
c-65.333 0 -118.333 -23 -159 -69s-62 -107.333 -64 -184l-196 -1c2 131.333 44 239 126 323s184.667 126 308 126c124 0 227.667 -40.667 311 -122s125 -182.666 125 -303.999c0 -112.667 -58 -229.334 -174 -350.001l-14 -14c-58 -60 -97.333 -112.5 -118 -157.5
s-33 -97.167 -37 -156.5h-201z" />
    <glyph glyph-name="at" unicode="@" horiz-adv-x="2048" 
d="M1284 854l56.9971 114.996h132l-146 -576c-2.66699 -10.667 -4.66699 -21 -6 -31s-2 -19.333 -2 -28c0 -30.667 8.5 -54 25.5 -70s41.833 -24 74.5 -24c32 0 66.167 8.83301 102.5 26.5s71.833 42.834 106.5 75.501c53.333 50.667 95 112.834 125 186.501
s45 151.5 45 233.5c0 172.667 -63.5 312.667 -190.5 420s-293.5 161 -499.5 161c-88.667 0 -170.667 -9.33301 -246 -28s-145.666 -47.334 -210.999 -86.001c-127.333 -76 -226 -175.833 -296 -299.5s-105 -260.167 -105 -409.5c0 -118 20.5 -220.667 61.5 -308
s105.167 -164 192.5 -230c66.667 -51.333 145.5 -90.833 236.5 -118.5s186.833 -41.5 287.5 -41.5c112.667 0 222.167 16.333 328.5 49s203.833 79.667 292.5 141l55 -82c-98.667 -74 -203.5 -129.667 -314.5 -167s-227.5 -56 -349.5 -56
c-126.667 0 -242.667 15.667 -348 47s-198.666 78 -279.999 140c-102.667 78.667 -179.334 170 -230.001 274s-76 222 -76 354c0 110 17.333 214.333 52 313s85 188.334 151 269.001c97.333 118.667 214.5 208.667 351.5 270s288.833 92 455.5 92c108.667 0 212 -15 310 -45
s182.333 -72.333 253 -127c86.667 -66.667 152.5 -143.667 197.5 -231s67.5 -181.666 67.5 -282.999c0 -116.667 -21.167 -221.667 -63.5 -315s-103.833 -172 -184.5 -236c-45.333 -36 -95.166 -63.667 -149.499 -83s-109.833 -29 -166.5 -29
c-66 0 -115.833 13.167 -149.5 39.5s-50.5 65.5 -50.5 117.5v19c-36.667 -59.333 -79.667 -103.166 -129 -131.499s-106.666 -42.5 -171.999 -42.5c-102 0 -179.833 28.333 -233.5 85s-80.5 139 -80.5 247c0 156.667 46 288 138 394s205 159 339 159
c56.667 0 105.167 -12.5 145.5 -37.5s72.5 -62.5 96.5 -112.5zM1190 474.996l58.999 236c-11.333 58.667 -34.166 104 -68.499 136s-77.5 48 -129.5 48c-92 0 -169.333 -43.333 -232 -130s-94 -193 -94 -319c0 -70 16.167 -124 48.5 -162s78.166 -57 137.499 -57
c64.667 0 122.834 23 174.501 69s86.5 105.667 104.5 179z" />
    <glyph glyph-name="A" unicode="A" horiz-adv-x="1233" 
d="M813 629l-205 553l-209 -553h414zM324 424l-164 -424h-223l569 1456h205l569 -1456h-231l-160 424h-565z" />
    <glyph glyph-name="B" unicode="B" horiz-adv-x="1053" 
d="M336 846l67 0.000976562c108.667 0 186.167 16.5 232.5 49.5s69.5 87.5 69.5 163.5c0 67.333 -21 117.166 -63 149.499s-106.333 48.5 -193 48.5h-113v-411zM334 197.001l166 -0.000976562c97.333 0 169 18.167 215 54.5s69 92.5 69 168.5
c0 82.667 -24 145.334 -72 188.001s-118.667 64 -212 64h-166v-475zM440 1456c155.333 0 273.334 -34 354.001 -102s121 -167 121 -297c0 -60 -13.167 -113 -39.5 -159s-64.833 -84 -115.5 -114c71.333 -21.333 127.666 -62.333 168.999 -123s62 -133 62 -217
c0 -68 -12.667 -131.833 -38 -191.5s-60.333 -109.167 -105 -148.5c-44 -37.333 -93.833 -64 -149.5 -80s-134.167 -24 -235.5 -24h-336v1456h313z" />
    <glyph glyph-name="C" unicode="C" horiz-adv-x="1540" 
d="M1452 365c-63.333 -127.333 -150.834 -224.835 -262.501 -292.502s-241.167 -101.5 -388.5 -101.5c-109.333 0 -210.166 21 -302.499 63s-175.166 104.333 -248.499 187c-62 68.667 -109 146.834 -141 234.501s-48 181.5 -48 281.5c0 101.333 19.333 197.5 58 288.5
s95.334 173.833 170.001 248.5c70.667 69.333 149.167 121.833 235.5 157.5s179.166 53.5 278.499 53.5c149.333 0 280.5 -35.333 393.5 -106s198.167 -170.667 255.5 -300h-248c-46.667 64.667 -104 113.334 -172 146.001s-145 49 -231 49c-68.667 0 -134 -13 -196 -39
s-117 -63.667 -165 -113c-50 -51.333 -89 -111 -117 -179s-42 -137.333 -42 -208c0 -76 12.667 -147.833 38 -215.5s61.666 -126.167 108.999 -175.5c50 -52 107.667 -92.333 173 -121s132 -43 200 -43c83.333 0 158.5 15.833 225.5 47.5s122.167 77.5 165.5 137.5h260z" />
    <glyph glyph-name="D" unicode="D" horiz-adv-x="1384" 
d="M322 195h256c162 0 290.167 47.167 384.5 141.5s141.5 222.5 141.5 384.5c0 168 -50 299.333 -150 394s-238.333 142 -415 142h-217v-1062zM526 0h-408.999v1456h469c218.667 0 395.167 -67.667 529.5 -203s201.5 -312 201.5 -530c0 -124 -25.167 -237 -75.5 -339
s-122.833 -187 -217.5 -255c-64 -46 -132.333 -79 -205 -99s-170.334 -30 -293.001 -30z" />
    <glyph glyph-name="E" unicode="E" horiz-adv-x="1014" 
d="M883 0h-756v1456h756v-194h-545v-435h545v-190h-545v-436h545v-201z" />
    <glyph glyph-name="F" unicode="F" horiz-adv-x="977" 
d="M123 0v1456h717v-194h-508v-435h508v-190h-508v-637h-209z" />
    <glyph glyph-name="G" unicode="G" horiz-adv-x="1612" 
d="M643 735h900.996c-10 -227.333 -83.667 -411.5 -221 -552.5s-311.333 -211.5 -522 -211.5c-109.333 0 -210.166 21 -302.499 63s-175.166 104.333 -248.499 187c-62 68.667 -109 146.834 -141 234.501s-48 181.5 -48 281.5c0 102 19.333 198.667 58 290
s95.334 173.666 170.001 246.999c70.667 70.667 149.667 123.5 237 158.5s184.333 52.5 291 52.5c147.333 0 276.5 -34.5 387.5 -103.5s194.833 -167.167 251.5 -294.5h-260c-48 62 -105.333 108.667 -172 140s-141 47 -223 47c-68.667 0 -134 -13 -196 -39
s-117 -63.667 -165 -113c-50 -51.333 -89 -111 -117 -179s-42 -137.333 -42 -208c0 -76 12.667 -147.833 38 -215.5s61.666 -126.167 108.999 -175.5c50 -52 107.667 -92.333 173 -121s132 -43 200 -43c110.667 0 208.334 29.5 293.001 88.5s154.334 146.167 209.001 261.5
h-660v205z" />
    <glyph glyph-name="H" unicode="H" horiz-adv-x="1270" 
d="M338 0h-211v1456h211v-618h594v618h211v-1456h-211v631h-594v-631z" />
    <glyph glyph-name="I" unicode="I" horiz-adv-x="465" 
d="M338 0h-211v1456h211v-1456z" />
    <glyph glyph-name="J" unicode="J" horiz-adv-x="905" 
d="M788 500c0 -102.667 -4.83008 -178.168 -14.4971 -226.501s-25.834 -90.5 -48.501 -126.5c-36 -56.667 -83.667 -100.167 -143 -130.5s-127 -45.5 -203 -45.5c-114 0 -204.5 32.167 -271.5 96.5s-101.5 151.5 -103.5 261.5l208 1c7.33301 -54 25.166 -94.5 53.499 -121.5
s67.5 -40.5 117.5 -40.5c73.333 0 124.166 21.833 152.499 65.5s42.5 141.834 42.5 294.501v928h210v-956z" />
    <glyph glyph-name="K" unicode="K" horiz-adv-x="1118" 
d="M346 723l549 733h254l-565 -723l551 -733h-265zM338 0h-211v1456h211v-1456z" />
    <glyph glyph-name="L" unicode="L" horiz-adv-x="858" 
d="M815 0h-688v1456h211v-1255h477v-201z" />
    <glyph glyph-name="M" unicode="M" horiz-adv-x="1724" 
d="M330 0h-203v1456h313l422 -1126l422 1126h309v-1456h-198l14 1264l-473 -1264h-150l-471 1264z" />
    <glyph glyph-name="N" unicode="N" horiz-adv-x="1384" 
d="M338 0h-211v1456h217l715 -1102l-10 1102h208v-1456h-202l-731 1135z" />
    <glyph glyph-name="O" unicode="O" horiz-adv-x="1612" 
d="M281 735c0 -76 12.668 -147.832 38.001 -215.499s61.666 -126.167 108.999 -175.5c50 -52 107.667 -92.333 173 -121s132 -43 200 -43c150.667 0 276.667 53.5 378 160.5s152 239.833 152 398.5c0 67.333 -12.167 131.5 -36.5 192.5s-59.833 117.167 -106.5 168.5
c-55.333 59.333 -114.5 103.166 -177.5 131.499s-132.833 42.5 -209.5 42.5c-68.667 0 -134 -13 -196 -39s-117 -63.667 -165 -113c-50 -51.333 -89 -111 -117 -179s-42 -137.333 -42 -208zM61.001 737.001c0 102 19.3311 198.667 57.998 290
s95.334 173.666 170.001 246.999c70.667 69.333 149.167 121.833 235.5 157.5s179.166 53.5 278.499 53.5c102 0 196.5 -17.833 283.5 -53.5s166.5 -88.834 238.5 -159.501c74 -72.667 129.667 -154 167 -244s56 -187 56 -291c0 -103.333 -16 -198.5 -48 -285.5
s-80 -165.167 -144 -234.5c-75.333 -81.333 -159.5 -142.666 -252.5 -183.999s-193.833 -62 -302.5 -62c-109.333 0 -210.166 21 -302.499 63s-175.166 104.333 -248.499 187c-62 68.667 -109 146.834 -141 234.501s-48 181.5 -48 281.5z" />
    <glyph glyph-name="P" unicode="P" horiz-adv-x="1053" 
d="M336 780h153.001c108.667 0 187.5 19 236.5 57s73.5 98.333 73.5 181s-24.833 144 -74.5 184s-125.834 60 -228.501 60h-160v-482zM336.001 0h-209v1456h338c95.333 0 167.833 -4.66699 217.5 -14s93.167 -25 130.5 -47c60.667 -35.333 109 -85.833 145 -151.5
s54 -136.834 54 -213.501c0 -135.333 -45.667 -243.166 -137 -323.499s-215 -120.5 -371 -120.5h-168v-586z" />
    <glyph glyph-name="Q" unicode="Q" horiz-adv-x="1612" 
d="M1180 344c52.667 59.333 90.998 120.168 114.998 182.501s36 133.166 36 212.499c0 67.333 -12.167 131.833 -36.5 193.5s-59.833 117.5 -106.5 167.5c-54.667 59.333 -113.5 103.166 -176.5 131.499s-133.167 42.5 -210.5 42.5c-68.667 0 -134 -13 -196 -39
s-117 -63.667 -165 -113c-52 -52.667 -91.833 -113.167 -119.5 -181.5s-41.5 -139.5 -41.5 -213.5c0 -22.667 1.83301 -46.667 5.5 -72s9.16699 -52 16.5 -80c32 16.667 67.333 28.834 106 36.501s83.334 11.5 134.001 11.5c108.667 0 217.834 -24 327.501 -72
s213.5 -117 311.5 -207zM1020 225.002c-74.667 68.667 -154.831 121.002 -240.498 157.002s-172.834 54 -261.501 54c-25.333 0 -49.833 -1.83301 -73.5 -5.5s-46.834 -9.16699 -69.501 -16.5c52 -74.667 116 -132.334 192 -173.001s158 -61 246 -61c32 0 65 3.66699 99 11
s70 18.666 108 33.999zM1208 90.0039c-60.667 -39.333 -124.835 -68.999 -192.502 -88.999s-138.5 -30 -212.5 -30c-85.333 0 -167.166 13.667 -245.499 41s-150.166 67 -215.499 119c-90.667 73.333 -160.167 162 -208.5 266s-72.5 217.333 -72.5 340
c0 101.333 19.333 197.5 58 288.5s95.334 173.833 170.001 248.5c70.667 69.333 149.167 121.833 235.5 157.5s179.166 53.5 278.499 53.5c102 0 196.5 -17.833 283.5 -53.5s166.5 -88.834 238.5 -159.501c74.667 -74 130.834 -157.333 168.501 -250
s56.5 -193.667 56.5 -303c0 -95.333 -15 -183.333 -45 -264s-75.667 -156 -137 -226c26 -12 52.667 -21 80 -27s56.666 -9 87.999 -9h27v-203h-19c-54 0 -109 8.33301 -165 25s-113 41.667 -171 75z" />
    <glyph glyph-name="R" unicode="R" horiz-adv-x="1157" 
d="M338 700h108c146 0 254.667 23.667 326 71s107 119.333 107 216c0 94 -30.667 163 -92 207s-158.333 66 -291 66h-158v-560zM338 0l-211 0.00195312v1456h420c174.667 0 308 -40.333 400 -121s138 -197.334 138 -350.001c0 -118.667 -38.5 -217.834 -115.5 -297.501
s-176.167 -122.5 -297.5 -128.5l413 -559h-264l-483 676v-676z" />
    <glyph glyph-name="S" unicode="S" horiz-adv-x="973" 
d="M50 420h189.003c3.33301 -75.333 25.666 -135.5 66.999 -180.5s95 -67.5 161 -67.5c72.667 0 130.834 22.5 174.501 67.5s65.5 105.167 65.5 180.5c0 66 -16 117 -48 153s-99 69.667 -201 101l-27 7c-122 32.667 -210.333 86.334 -265 161.001
c-24.667 32.667 -43.167 67.5 -55.5 104.5s-18.5 76.5 -18.5 118.5c0 124.667 37 225.5 111 302.5s171 115.5 291 115.5c111.333 0 201.166 -34.5 269.499 -103.5s106.166 -163.5 113.499 -283.5h-197c-3.33301 58 -22.833 104.833 -58.5 140.5s-80.5 53.5 -134.5 53.5
c-58 0 -105.167 -19.833 -141.5 -59.5s-54.5 -90.834 -54.5 -153.501c0 -22 3.33301 -42.667 10 -62s17 -37.333 31 -54c28.667 -34 90 -63.333 184 -88c43.333 -11.333 76.666 -21 99.999 -29c96 -36 168.833 -88.333 218.5 -157s74.5 -151 74.5 -247
c0 -140.667 -40 -254 -120 -340s-186 -129 -318 -129c-124 0 -224.833 41.167 -302.5 123.5s-117.167 190.833 -118.5 325.5z" />
    <glyph glyph-name="T" unicode="T" horiz-adv-x="786" 
d="M500 0h-211v1260h-273v196h756v-196h-272v-1260z" />
    <glyph glyph-name="U" unicode="U" horiz-adv-x="1157" 
d="M113 1456l211 0.00292969v-926c0 -132 19.667 -223.667 59 -275s106.333 -77 201 -77c90 0 153.667 26.167 191 78.5s56 143.5 56 273.5v926h211v-924c0 -98.667 -5.5 -174.334 -16.5 -227.001s-29.167 -98.334 -54.5 -137.001c-44 -66.667 -97.5 -116.167 -160.5 -148.5
s-137.167 -48.5 -222.5 -48.5c-93.333 0 -172 15.667 -236 47s-119.333 80.666 -166 147.999c-26 38.667 -44.667 82 -56 130s-17 126.667 -17 236v924z" />
    <glyph glyph-name="V" unicode="V" horiz-adv-x="1161" 
d="M643 0h-125l-561 1456h223l400 -1085l401 1085h221z" />
    <glyph glyph-name="W" unicode="W" horiz-adv-x="1726" 
d="M-31 1456h215l316 -1122l284 1122h158l283 -1122l315 1122h215l-440 -1456h-191l-262 1087l-264 -1087h-188z" />
    <glyph glyph-name="X" unicode="X" horiz-adv-x="1200" 
d="M600 569l-362 -569h-244l485 735l-473 721h246l348 -563l344 563h250l-473 -721l483 -735h-246z" />
    <glyph glyph-name="Y" unicode="Y" horiz-adv-x="1010" 
d="M608 524v-524h-211v537l-446 919h235l320 -700l319 700h234z" />
    <glyph glyph-name="Z" unicode="Z" horiz-adv-x="973" 
d="M932 0h-893v207l637 1044h-596v205h840v-184l-660 -1071h672v-201z" />
    <glyph glyph-name="bracketleft" unicode="[" horiz-adv-x="569" 
d="M510 -252v-162h-385v1870h385v-160h-193v-1548h193z" />
    <glyph glyph-name="backslash" unicode="\" horiz-adv-x="569" 
d="M479 -190l-479 1675h147l480 -1675h-148z" />
    <glyph glyph-name="bracketright" unicode="]" horiz-adv-x="569" 
d="M444 -414h-385v162h191v1548h-191v160h385v-1870z" />
    <glyph glyph-name="asciicircum" unicode="^" horiz-adv-x="2048" 
d="M1116 1458l510 -557h-180l-422 420l-424 -420h-180l510 557h186z" />
    <glyph glyph-name="underscore" unicode="_" 
d="M1024 -340v-143h-1024v143h1024z" />
    <glyph glyph-name="grave" unicode="`" 
d="M655 1241h-120l-285 348h201z" />
    <glyph glyph-name="a" unicode="a" horiz-adv-x="1319" 
d="M266 557c0 -111.333 36.833 -204.667 110.5 -280s163.834 -113 270.501 -113c97.333 0 183.166 37.833 257.499 113.5s111.5 164.167 111.5 265.5c0 108 -36.833 200.5 -110.5 277.5s-161.167 115.5 -262.5 115.5c-104 0 -192.833 -36.667 -266.5 -110
s-110.5 -163 -110.5 -269zM1006 -0.000976562v135.001c-50.667 -52.667 -107.167 -92.5 -169.5 -119.5s-128.833 -40.5 -199.5 -40.5c-165.333 0 -302.666 55.167 -411.999 165.5s-164 248.5 -164 414.5c0 77.333 13.667 150.666 41 219.999s66.333 130.333 117 183
c55.333 58 115.833 100.833 181.5 128.5s140.5 41.5 224.5 41.5c75.333 0 144.666 -13.333 207.999 -40s121 -67 173 -121v133h200v-1100h-200z" />
    <glyph glyph-name="b" unicode="b" horiz-adv-x="1319" 
d="M303 543c0 -101.333 37.168 -189.832 111.501 -265.499s160.166 -113.5 257.499 -113.5c106 0 195.667 37.5 269 112.5s110 168.5 110 280.5c0 105.333 -37 194.833 -111 268.5s-162.667 110.5 -266 110.5c-101.333 0 -188.5 -38.333 -261.5 -115
s-109.5 -169.334 -109.5 -278.001zM311.001 135.001v-135.001h-200v1456h198v-489c53.333 54 111.833 94.333 175.5 121s132.834 40 207.501 40c84 0 158.833 -13.833 224.5 -41.5s126.167 -70.5 181.5 -128.5c51.333 -53.333 90.666 -114.666 117.999 -183.999
s41 -142.333 41 -219c0 -166 -54.667 -304.167 -164 -414.5s-247 -165.5 -413 -165.5c-70.667 0 -137.167 13.5 -199.5 40.5s-118.833 66.833 -169.5 119.5z" />
    <glyph glyph-name="c" unicode="c" horiz-adv-x="1241" 
d="M1161 375c-46 -132.667 -114.332 -233.167 -204.999 -301.5s-201 -102.5 -331 -102.5c-82 0 -156.333 14.167 -223 42.5s-127 70.833 -181 127.5c-51.333 54 -91.5 116.833 -120.5 188.5s-43.5 144.834 -43.5 219.501c0 76.667 13.167 148.5 39.5 215.5
s65.166 128.167 116.499 183.5c56.667 60.667 120.334 106.667 191.001 138s146.334 47 227.001 47c126 0 235.333 -34.833 328 -104.5s160 -167.5 202 -293.5h-217c-34.667 67.333 -79.334 117.666 -134.001 150.999s-120 50 -196 50c-98 0 -181.167 -37 -249.5 -111
s-102.5 -165.333 -102.5 -274c0 -110 34.667 -201.667 104 -275s155.666 -110 258.999 -110c69.333 0 132 18.167 188 54.5s99.667 87.833 131 154.5h217z" />
    <glyph glyph-name="d" unicode="d" horiz-adv-x="1319" 
d="M266 557c0 -111.333 36.833 -204.667 110.5 -280s163.834 -113 270.501 -113c97.333 0 183.166 37.833 257.499 113.5s111.5 164.167 111.5 265.5c0 108 -36.833 200.5 -110.5 277.5s-161.167 115.5 -262.5 115.5c-104 0 -192.833 -36.667 -266.5 -110
s-110.5 -163 -110.5 -269zM1006 -0.000976562l-0.00195312 135.001c-50.667 -52.667 -107.167 -92.5 -169.5 -119.5s-128.833 -40.5 -199.5 -40.5c-165.333 0 -302.666 55.167 -411.999 165.5s-164 248.5 -164 414.5c0 77.333 13.667 150.666 41 219.999
s66.333 130.333 117 183c55.333 58 115.833 100.833 181.5 128.5s140.5 41.5 224.5 41.5c74.667 0 143.834 -13.333 207.501 -40s122.167 -67 175.5 -121v489h198v-1456h-200z" />
    <glyph glyph-name="e" unicode="e" horiz-adv-x="1245" 
d="M973 655c-24.667 90.667 -67.3311 160.833 -127.998 210.5s-133.334 74.5 -218.001 74.5c-86.667 0 -161.834 -25.5 -225.501 -76.5s-107.5 -120.5 -131.5 -208.5h703zM264.003 476.999c16.667 -92 58.167 -166.497 124.5 -223.497s145.166 -85.5 236.499 -85.5
c65.333 0 124.833 15.667 178.5 47s96.5 75.666 128.5 132.999h223c-50.667 -122 -121.5 -215.333 -212.5 -280s-196.833 -97 -317.5 -97c-81.333 0 -155.666 14.333 -222.999 43s-128.333 71.667 -183 129c-51.333 54 -91.5 116.833 -120.5 188.5
s-43.5 144.834 -43.5 219.501c0 77.333 13.167 149.666 39.5 216.999s65.166 128.666 116.499 183.999c54.667 60 116.334 105.167 185.001 135.5s143.667 45.5 225 45.5c96.667 0 186.5 -22.5 269.5 -67.5s151.5 -107.833 205.5 -188.5c32 -50 55.667 -104.833 71 -164.5
s23 -127.834 23 -204.501v-31h-926z" />
    <glyph glyph-name="f" unicode="f" horiz-adv-x="569" 
d="M369 0l-197.001 0.000976562v928h-131v172h125v33c0 112.667 31.333 197.5 94 254.5s156.334 85.5 281.001 85.5v-183h-17c-58.667 0 -100.667 -13.333 -126 -40s-38 -71.334 -38 -134.001v-16h181v-172h-172v-928z" />
    <glyph glyph-name="g" unicode="g" horiz-adv-x="1319" 
d="M133 -88l210.997 -0.000976562c30.667 -51.333 70.834 -90.5 120.501 -117.5s106.5 -40.5 170.5 -40.5c111.333 0 201 33.5 269 100.5s102 155.833 102 266.5v14c-50.667 -52.667 -107.167 -92.5 -169.5 -119.5s-128.833 -40.5 -199.5 -40.5
c-165.333 0 -302.666 55.167 -411.999 165.5s-164 248.5 -164 414.5c0 77.333 13.667 150.666 41 219.999s66.333 130.333 117 183c55.333 58 115.833 100.833 181.5 128.5s140.5 41.5 224.5 41.5c74.667 0 143.834 -13.333 207.501 -40s122.167 -67 175.5 -121v133h198
v-918c0 -191.333 -49.667 -341.166 -149 -449.499s-236 -162.5 -410 -162.5c-126 0 -233.667 29.833 -323 89.5s-153 143.834 -191 252.501zM265.997 556.999c0 -111.333 36.833 -204.667 110.5 -280s163.834 -113 270.501 -113c97.333 0 183.166 37.833 257.499 113.5
s111.5 164.167 111.5 265.5c0 108 -36.833 200.5 -110.5 277.5s-161.167 115.5 -262.5 115.5c-104 0 -192.833 -36.667 -266.5 -110s-110.5 -163 -110.5 -269z" />
    <glyph glyph-name="h" unicode="h" horiz-adv-x="1157" 
d="M315 0l-198.001 -0.000976562v1456h198v-481c32 47.333 73.5 83 124.5 107s110.5 36 178.5 36c133.333 0 237 -42.667 311 -128s111 -205 111 -359v-631h-198v567c0 122 -20.667 212.667 -62 272s-104.666 89 -189.999 89c-52 0 -98 -12 -138 -36s-72 -58.667 -96 -104
c-14.667 -27.333 -25.167 -60.666 -31.5 -99.999s-9.5 -102 -9.5 -188v-500z" />
    <glyph glyph-name="i" unicode="i" horiz-adv-x="432" 
d="M313 1229h-196v227h196v-227zM117 0v1100h196v-1100h-196z" />
    <glyph glyph-name="j" unicode="j" horiz-adv-x="455" 
d="M326 -10c0 -124.667 -22.4971 -213.5 -67.4971 -266.5s-118.833 -79.5 -221.5 -79.5c-4.66699 0 -11.834 0.333008 -21.501 1s-16.834 1 -21.501 1v194c53.333 0 89.166 9.16699 107.499 27.5s27.5 62.5 27.5 132.5v57v1043h197v-1110zM326.003 1229h-197v227h197v-227z
" />
    <glyph glyph-name="k" unicode="k" horiz-adv-x="977" 
d="M117 0v1456h196v-866l392 510h231l-404 -522l478 -578h-254l-443 559v-559h-196z" />
    <glyph glyph-name="l" unicode="l" horiz-adv-x="432" 
d="M117 0v1456h196v-1456h-196z" />
    <glyph glyph-name="m" unicode="m" horiz-adv-x="1778" 
d="M795 555c0 134 -19 231.333 -57 292s-98.333 91 -181 91c-85.333 0 -148.333 -30.5 -189 -91.5s-61 -155.5 -61 -283.5v-563h-188v1100h176v-129c36.667 49.333 78.167 86.166 124.5 110.499s99.166 36.5 158.499 36.5c80 0 146.667 -15.333 200 -46s97 -78.667 131 -144
c34 64 79 111.667 135 143s124.333 47 205 47c124 0 223.333 -40.5 298 -121.5s112 -189.167 112 -324.5v-672h-199v641c0 94 -20.5 167 -61.5 219s-98.167 78 -171.5 78c-85.333 0 -146.666 -27.667 -183.999 -83s-56 -148.666 -56 -279.999v-575h-192v555z" />
    <glyph glyph-name="n" unicode="n" horiz-adv-x="1176" 
d="M315 0h-198v1100h190v-125c41.333 49.333 86.833 85.5 136.5 108.5s106.5 34.5 170.5 34.5c144 0 254.5 -42.333 331.5 -127s115.5 -206 115.5 -364v-627h-199v584c0 116.667 -21.667 203.167 -65 259.5s-110.333 84.5 -201 84.5
c-98.667 0 -170.167 -33.167 -214.5 -99.5s-66.5 -175.833 -66.5 -328.5v-500z" />
    <glyph glyph-name="o" unicode="o" horiz-adv-x="1241" 
d="M258 551c0 -110 34.834 -201.667 104.501 -275s156.5 -110 260.5 -110c102 0 187.5 36.833 256.5 110.5s103.5 165.834 103.5 276.501c0 111.333 -34.5 203.333 -103.5 276s-155.167 109 -258.5 109c-102.667 0 -188.834 -36.833 -258.501 -110.5
s-104.5 -165.834 -104.5 -276.501zM53.001 549c0 78 13.1709 150.829 39.5039 218.496s65.166 128.5 116.499 182.5c55.333 59.333 117.666 105 186.999 137s141.333 48 216 48c80 0 154.167 -14.333 222.5 -43s130.166 -71 185.499 -127
c54 -55.333 95.5 -117.666 124.5 -186.999s43.5 -141 43.5 -215c0 -75.333 -13.5 -148.666 -40.5 -219.999s-64.833 -133.666 -113.5 -186.999c-56 -61.333 -118.833 -107.833 -188.5 -139.5s-143.834 -47.5 -222.501 -47.5c-80.667 0 -155 14.5 -223 43.5
s-129 71.833 -183 128.5c-51.333 54 -91.5 116.833 -120.5 188.5s-43.5 144.834 -43.5 219.501z" />
    <glyph glyph-name="p" unicode="p" horiz-adv-x="1319" 
d="M303 557c0 -108.667 36.499 -201.332 109.499 -277.999s160.167 -115 261.5 -115c103.333 0 192 36.833 266 110.5s111 163.167 111 268.5c0 111.333 -36.667 204.666 -110 279.999s-163 113 -269 113c-97.333 0 -183.166 -37.833 -257.499 -113.5
s-111.5 -164.167 -111.5 -265.5zM308.999 133.002v-489h-198v1456h200v-135c50.667 52 107.167 91.5 169.5 118.5s128.833 40.5 199.5 40.5c166 0 303.667 -55 413 -165s164 -248 164 -414c0 -76.667 -13.667 -149.667 -41 -219s-66.666 -131 -117.999 -185
c-55.333 -58 -115.833 -100.833 -181.5 -128.5s-140.5 -41.5 -224.5 -41.5c-74.667 0 -143.834 13.5 -207.501 40.5s-122.167 67.5 -175.5 121.5z" />
    <glyph glyph-name="q" unicode="q" horiz-adv-x="1319" 
d="M647 936c-106 0 -195.668 -37.6689 -269.001 -113.002s-110 -168.666 -110 -279.999c0 -106 36.833 -195.667 110.5 -269s162.5 -110 266.5 -110c101.333 0 188.5 38.333 261.5 115s109.5 169.334 109.5 278.001c0 101.333 -37.167 189.833 -111.5 265.5
s-160.166 113.5 -257.499 113.5zM1208 -356.002h-200.001v489c-52 -54 -109.667 -94.5 -173 -121.5s-132.666 -40.5 -207.999 -40.5c-84 0 -158.833 13.833 -224.5 41.5s-126.167 70.5 -181.5 128.5c-51.333 54 -90.833 115.667 -118.5 185s-41.5 142.333 -41.5 219
c0 166 54.833 304 164.5 414s247.5 165 413.5 165c70.667 0 137.167 -13.5 199.5 -40.5s118.833 -66.5 169.5 -118.5v135h200v-1456z" />
    <glyph glyph-name="r" unicode="r" horiz-adv-x="592" 
d="M317 0l-198 -0.000976562v1100h186v-127c32.667 48.667 70.167 84.834 112.5 108.501s91.5 35.834 147.5 36.501v-207c-88.667 -6.66699 -152.167 -32.834 -190.5 -78.501s-57.5 -119.167 -57.5 -220.5v-612z" />
    <glyph glyph-name="s" unicode="s" horiz-adv-x="797" 
d="M41 356l185.999 -0.00292969c0 -58 16.167 -105.833 48.5 -143.5s72.833 -56.5 121.5 -56.5c46 0 83.833 14.167 113.5 42.5s44.5 64.5 44.5 108.5c0 38.667 -10.5 71.334 -31.5 98.001s-54.833 49.334 -101.5 68.001c-16 6.66699 -38.667 15.334 -68 26.001
c-78 29.333 -127.667 52.666 -149 69.999c-39.333 31.333 -68.333 66.833 -87 106.5s-28 85.5 -28 137.5c0 89.333 31.167 165.333 93.5 228s138.5 94 228.5 94c94 0 168.667 -27.5 224 -82.5s85.666 -132.167 90.999 -231.5h-190
c-3.33301 40.667 -16.666 72.334 -39.999 95.001s-54.666 34 -93.999 34c-35.333 0 -64.833 -12.167 -88.5 -36.5s-35.5 -54.5 -35.5 -90.5c0 -61.333 53.333 -111.666 160 -150.999l71 -27c84 -34 143.833 -76.333 179.5 -127s53.5 -118.334 53.5 -203.001
c0 -98.667 -33.333 -180.667 -100 -246s-150.667 -98 -252 -98c-102 0 -184.333 34.333 -247 103s-97 162.667 -103 282z" />
    <glyph glyph-name="t" unicode="t" horiz-adv-x="563" 
d="M184 0v920h-155v180h155v356h197v-356h156v-180h-156v-920h-197z" />
    <glyph glyph-name="u" unicode="u" horiz-adv-x="1157" 
d="M1034 0l-190 0.000976562v123c-39.333 -50 -83.5 -87.167 -132.5 -111.5s-103.833 -36.5 -164.5 -36.5c-138.667 0 -246 43 -322 129s-114 207 -114 363v633h198v-576c0 -118.667 21 -207.667 63 -267s105 -89 189 -89c52 0 98.333 12.167 139 36.5s73 59.166 97 104.499
c14.667 28 25.167 61.333 31.5 100s9.5 101 9.5 187v504h196v-1100z" />
    <glyph glyph-name="v" unicode="v" horiz-adv-x="1014" 
d="M571 0h-149l-418 1100h213l289 -803l297 803h209z" />
    <glyph glyph-name="w" unicode="w" horiz-adv-x="1460" 
d="M729 745l-225 -745h-111l-381 1100h211l226 -727l223 727h121l221 -727l227 727h209l-383 -1100h-111z" />
    <glyph glyph-name="x" unicode="x" horiz-adv-x="934" 
d="M719 0l-254 416l-266 -416h-219l372 571l-329 529h221l229 -377l234 377h229l-348 -522l352 -578h-221z" />
    <glyph glyph-name="y" unicode="y" horiz-adv-x="1049" 
d="M6 1100h213l297 -819l322 819h213l-592 -1456h-209l153 387z" />
    <glyph glyph-name="z" unicode="z" horiz-adv-x="825" 
d="M780 0h-760v160l531 760h-467v180h666v-203l-496 -711h526v-186z" />
    <glyph glyph-name="braceleft" unicode="{" 
d="M866 1327l-40.998 -0.00292969c-80 0 -133.667 -14.833 -161 -44.5s-41 -91.167 -41 -184.5v-242c0 -106.667 -14.833 -182.667 -44.5 -228s-81.834 -78 -156.501 -98c75.333 -18.667 127.666 -50.667 156.999 -96s44 -121.666 44 -228.999v-242
c0 -94 13.833 -155.667 41.5 -185s81.834 -44 162.501 -44h39v-148h-43c-72 0 -128.333 3.83301 -169 11.5s-75 20.167 -103 37.5c-36.667 22.667 -62.5 55 -77.5 97s-22.5 112.333 -22.5 211v245c0 99.333 -18.167 169.333 -54.5 210s-98.166 61 -185.499 61
c-4.66699 0 -11.834 -0.333008 -21.501 -1s-16.834 -1 -21.501 -1v149c5.33301 0 13 -0.333008 23 -1s17.333 -1 22 -1c86.667 0 148 20.167 184 60.5s54 109.5 54 207.5v246c0 98.667 7.5 168.834 22.5 210.501s40.833 73.834 77.5 96.501c30 18.667 66.167 32 108.5 40
s98.833 12 169.5 12h37v-150z" />
    <glyph glyph-name="bar" unicode="|" 
d="M588 1565v-2048h-150v2048h150z" />
    <glyph glyph-name="braceright" unicode="}" 
d="M575 1118l-0.000976562 -245.997c0 -98 18 -167.167 54 -207.5s97.333 -60.5 184 -60.5c4.66699 0 12 0.333008 22 1s17.667 1 23 1v-149c-4.66699 0 -12 0.333008 -22 1s-17 1 -21 1c-88 0 -150 -20.167 -186 -60.5s-54 -110.5 -54 -210.5v-245
c0 -98.667 -7.5 -169 -22.5 -211s-40.833 -74.333 -77.5 -97c-28 -17.333 -62.333 -29.833 -103 -37.5s-97 -11.5 -169 -11.5h-43v148h39c80 0 134 15 162 45s42 92 42 186v240c0 106.667 14.833 182.667 44.5 228s81.834 77.666 156.501 96.999
c-74.667 20 -126.834 52.667 -156.501 98s-44.5 121.333 -44.5 228v242c0 93.333 -14 154.833 -42 184.5s-82 44.5 -162 44.5h-39v150h37c71.333 0 128.333 -4.16699 171 -12.5s78.334 -21.5 107.001 -39.5c36.667 -22.667 62.5 -54.834 77.5 -96.501
s22.5 -111.834 22.5 -210.501z" />
    <glyph glyph-name="asciitilde" unicode="~" horiz-adv-x="1706" 
d="M1530 614c-69.333 -48 -135.669 -83.501 -199.002 -106.501s-126.666 -34.5 -189.999 -34.5c-62 0 -147.333 19.333 -256 58c-14.667 5.33301 -26 9.33301 -34 12c-3.33301 1.33301 -8.33301 3 -15 5c-117.333 40 -208.333 60 -273 60c-56 0 -114.333 -12.333 -175 -37
s-130.667 -64.667 -210 -120v155c70.667 48 138 84 202 108s125.667 36 185 36c41.333 0 83.833 -4.5 127.5 -13.5s98.167 -25.167 163.5 -48.5c10.667 -3.33301 26.334 -9 47.001 -17c106 -38 186 -57 240 -57c58.667 0 118.5 12.333 179.5 37
s130.167 64.334 207.5 119.001v-156z" />
    <glyph glyph-name="nonbreakingspace" unicode="&#xa0;" horiz-adv-x="1171" 
 />
    <glyph glyph-name="exclamdown" unicode="&#xa1;" horiz-adv-x="594" 
d="M199 1096h196v-1096h-196v1096zM199 1456h196v-233h-196v233z" />
    <glyph glyph-name="cent" unicode="&#xa2;" horiz-adv-x="1171" 
d="M1110 549c-36.667 -114.667 -91.667 -206.334 -165 -275.001s-161.666 -111 -264.999 -127v-229h-168v232c-132.667 24.667 -241.334 90.834 -326.001 198.501s-127 232.5 -127 374.5c0 145.333 41.167 270.5 123.5 375.5s192.166 171.5 329.499 199.5v211h168v-209
c103.333 -13.333 191.666 -53.333 264.999 -120s128.333 -157 165 -271h-209c-31.333 68 -73.166 118.833 -125.499 152.5s-114.166 50.5 -185.499 50.5c-94 0 -173.5 -37.167 -238.5 -111.5s-97.5 -166.833 -97.5 -277.5c0 -110 33 -201.333 99 -274s148.333 -109 247 -109
c68 0 128.167 18.167 180.5 54.5s92.5 87.833 120.5 154.5h209z" />
    <glyph glyph-name="sterling" unicode="&#xa3;" horiz-adv-x="1171" 
d="M127 -2l0.000976562 197.001h227c28.667 28 49.834 58.333 63.501 91s20.5 68.334 20.5 107.001c0 44.667 -8 87.334 -24 128.001s-44 87.667 -84 141h-219v190h108c-14.667 32.667 -25.5 63.667 -32.5 93s-10.5 58.333 -10.5 87c0 122.667 47.167 228.167 141.5 316.5
s207.5 132.5 339.5 132.5c113.333 0 209.666 -34.333 288.999 -103s130.666 -162 153.999 -280h-215c-17.333 55.333 -47.166 98.833 -89.499 130.5s-91.833 47.5 -148.5 47.5c-76 0 -137.667 -24.167 -185 -72.5s-71 -110.833 -71 -187.5c0 -25.333 3.5 -51.5 10.5 -78.5
s17.833 -55.5 32.5 -85.5h449v-190h-320c27.333 -52 46.833 -97.5 58.5 -136.5s17.5 -78.167 17.5 -117.5c0 -44 -6 -83.667 -18 -119s-30.667 -68.333 -56 -99c6 -1.33301 12.5 -2.33301 19.5 -3s17.5 -1 31.5 -1h33c96 0 167.833 18.667 215.5 56s71.5 93.333 71.5 168
c0 17.333 -1.16699 35.166 -3.5 53.499s-5.83301 37.166 -10.5 56.499h204c4.66699 -20.667 8 -39.334 10 -56.001s3 -32 3 -46c0 -80 -16.833 -152.333 -50.5 -217s-79.834 -114 -138.501 -148c-34 -20 -75.333 -34.167 -124 -42.5s-135 -12.5 -259 -12.5h-35h-405z" />
    <glyph glyph-name="currency" unicode="&#xa4;" horiz-adv-x="1241" 
d="M926 887c0 83.333 -29.667 154.666 -89 213.999s-130.666 89 -213.999 89c-84 0 -155.667 -29.667 -215 -89s-89 -130.666 -89 -213.999c0 -84 29.667 -155.833 89 -215.5s131 -89.5 215 -89.5c83.333 0 154.666 29.833 213.999 89.5s89 131.5 89 215.5zM367 1219
c38 28.667 78 50.1689 120 64.502s86.667 21.5 134 21.5s92.166 -7.16699 134.499 -21.5s82.833 -35.833 121.5 -64.5l204 204l82 -80l-205 -206c27.333 -36.667 47.833 -76 61.5 -118s20.5 -86.667 20.5 -134c0 -48.667 -6.66699 -93.834 -20 -135.501
s-34 -80.5 -62 -116.5l205 -205l-82 -82l-204 205c-39.333 -29.333 -80 -51 -122 -65s-86 -21 -132 -21c-48 0 -93.167 7.16699 -135.5 21.5s-82.5 35.833 -120.5 64.5l-205 -205l-82 82l207 205c-27.333 34 -48.166 72.667 -62.499 116s-21.5 88.666 -21.5 135.999
c0 46.667 7 91 21 133s35 81.667 63 119l-207 206l82 80z" />
    <glyph glyph-name="yen" unicode="&#xa5;" horiz-adv-x="1171" 
d="M909 987h170v-143h-239l-82 -166h321v-141h-391v-537h-209v537h-391v141h322l-82 166h-240v143h170l-223 461h233l320 -696l315 696h232z" />
    <glyph glyph-name="brokenbar" unicode="&#xa6;" 
d="M588 408v-758h-150v758h150zM588 1432v-758h-150v758h150z" />
    <glyph glyph-name="section" unicode="&#xa7;" 
d="M657 408c32 18.667 57.167 42.168 75.5 70.501s27.5 57.166 27.5 86.499c0 36.667 -13.833 71 -41.5 103s-73.167 65.333 -136.5 100l-217 119c-36 -21.333 -62.833 -44.333 -80.5 -69s-26.5 -51.667 -26.5 -81c0 -37.333 11.333 -70 34 -98s70.667 -62.667 144 -104z
M150 113.001l173.998 0.00292969v-11c0 -54 16.833 -96.167 50.5 -126.5s80.834 -45.5 141.501 -45.5c52.667 0 94.5 13 125.5 39s46.5 61 46.5 105c0 38.667 -15.167 74 -45.5 106s-90.166 72.333 -179.499 121l-182 98c-68 37.333 -118.5 79.333 -151.5 126
s-49.5 99.667 -49.5 159c0 56 14.667 107.667 44 155s74 91.333 134 132c-30.667 25.333 -53.667 54.666 -69 87.999s-23 70.666 -23 111.999c0 92.667 31.167 168.167 93.5 226.5s143.166 87.5 242.499 87.5c107.333 0 191.833 -28.5 253.5 -85.5
s92.5 -135.167 92.5 -234.5v-10h-170c-2 54 -18.833 97.167 -50.5 129.5s-73.5 48.5 -125.5 48.5c-48.667 0 -87.167 -12.167 -115.5 -36.5s-42.5 -57.833 -42.5 -100.5c0 -36.667 13 -69 39 -97s86.667 -67.333 182 -118l176 -94
c72.667 -38.667 124.667 -81.334 156 -128.001s47 -103.667 47 -171c0 -59.333 -17 -114.5 -51 -165.5s-78.333 -88.167 -133 -111.5c34.667 -29.333 60.334 -61.833 77.001 -97.5s25 -75.5 25 -119.5c0 -92 -33.833 -168.167 -101.5 -228.5s-154.5 -90.5 -260.5 -90.5
s-190.833 30.333 -254.5 91s-95.5 141.667 -95.5 243v4z" />
    <glyph glyph-name="dieresis" unicode="&#xa8;" 
d="M598 1300v209h184v-209h-184zM242 1300v209h184v-209h-184z" />
    <glyph glyph-name="copyright" unicode="&#xa9;" horiz-adv-x="1706" 
d="M1053 907c-8.66699 51.333 -30.667 90.833 -66 118.5s-81.666 41.5 -138.999 41.5c-70 0 -125 -30.167 -165 -90.5s-60 -143.5 -60 -249.5c0 -104.667 20.667 -186.167 62 -244.5s99 -87.5 173 -87.5c54.667 0 100.167 15.667 136.5 47s59.166 74.333 68.499 129h145
c-6 -86.667 -41.833 -157 -107.5 -211s-148.5 -81 -248.5 -81c-121.333 0 -216.5 40 -285.5 120s-103.5 191.333 -103.5 334c0 133.333 36.333 240.833 109 322.5s168 122.5 286 122.5c94.667 0 173.5 -25 236.5 -75s98.167 -115.333 105.5 -196h-147zM1493 727
c0 86.667 -15.833 168.834 -47.5 246.501s-77.167 146.5 -136.5 206.5c-62 61.333 -131.667 108 -209 140s-159.333 48 -246 48c-86 0 -167.167 -15.667 -243.5 -47s-144.5 -77 -204.5 -137c-62 -62 -109.667 -132.5 -143 -211.5s-50 -160.833 -50 -245.5
c0 -84 16.333 -164.667 49 -242s79.667 -147 141 -209c61.333 -60.667 130.5 -107.167 207.5 -139.5s158.167 -48.5 243.5 -48.5c83.333 0 164 16.333 242 49s149 80 213 142c60 58.667 105.667 126.167 137 202.5s47 158.166 47 245.499zM852 1464
c101.333 0 196.499 -18.166 285.499 -54.499s168.5 -89.833 238.5 -160.5c69.333 -68.667 122.5 -148.167 159.5 -238.5s55.5 -184.833 55.5 -283.5c0 -99.333 -18.167 -193.166 -54.5 -281.499s-89.166 -166.5 -158.499 -234.5
c-73.333 -71.333 -155.166 -126 -245.499 -164s-183.833 -57 -280.5 -57s-189.5 18.667 -278.5 56s-168.833 91.666 -239.5 162.999c-70.667 70 -124.5 149.5 -161.5 238.5s-55.5 182.167 -55.5 279.5c0 98 18.667 191.833 56 281.5s91.666 170.5 162.999 242.5
c69.333 69.333 148 122.166 236 158.499s181.333 54.5 280 54.5z" />
    <glyph glyph-name="ordfeminine" unicode="&#xaa;" horiz-adv-x="989" 
d="M201 1075c0 -78 27.5 -143.167 82.5 -195.5s122.167 -78.5 201.5 -78.5c73.333 0 137.833 26.667 193.5 80s83.5 115.333 83.5 186c0 76 -27.5 140.667 -82.5 194s-120.5 80 -196.5 80c-78 0 -144.5 -25.667 -199.5 -77s-82.5 -114.333 -82.5 -189zM754 686
l-0.000976562 93.999c-37.333 -36 -79.5 -63.333 -126.5 -82s-97.167 -28 -150.5 -28c-124 0 -226.667 38.333 -308 115s-122 173.334 -122 290.001c0 53.333 10 104.333 30 153s49 92 87 130c41.333 40.667 86.833 70.667 136.5 90s105.834 29 168.501 29
c56.667 0 108.667 -9.5 156 -28.5s90.333 -47.833 129 -86.5v94h151v-770h-151z" />
    <glyph glyph-name="guillemotleft" unicode="&#xab;" horiz-adv-x="1032" 
d="M524 238h-149l-248 313l248 311h149l-241 -313zM881 238h-152l-248 313l248 311h152l-244 -313z" />
    <glyph glyph-name="logicalnot" unicode="&#xac;" horiz-adv-x="1706" 
d="M1452 860v-502h-137v363h-1061v139h1198z" />
    <glyph glyph-name="sfthyphen" unicode="&#xad;" horiz-adv-x="678" 
d="M588 457h-498v184h498v-184z" />
    <glyph glyph-name="registered" unicode="&#xae;" horiz-adv-x="1706" 
d="M844 1057l-129 -0.000976562v-277h133c75.333 0 129.333 10.5 162 31.5s49 54.833 49 101.5c0 50.667 -17 87.334 -51 110.001s-88.667 34 -164 34zM872 1159c116 0 203.167 -19.168 261.5 -57.501s87.5 -95.5 87.5 -171.5c0 -59.333 -16.667 -108.666 -50 -147.999
s-80.333 -65 -141 -77l187 -381h-177l-170 356h-155v-356h-158v835h315zM1493 720.998c0 89.333 -15.5 173 -46.5 251s-76.167 146.667 -135.5 206c-61.333 62 -130.833 109.167 -208.5 141.5s-160.5 48.5 -248.5 48.5c-86.667 0 -168.334 -15.667 -245.001 -47
s-143.667 -76.333 -201 -135c-62.667 -63.333 -110.834 -134.666 -144.501 -213.999s-50.5 -161 -50.5 -245c0 -83.333 16.167 -163.5 48.5 -240.5s78.833 -146.167 139.5 -207.5c60 -61.333 128.833 -108.5 206.5 -141.5s157.834 -49.5 240.501 -49.5
c86.667 0 168.834 16 246.501 48s148.5 78.667 212.5 140c60 58.667 106 126.167 138 202.5s48 157.166 48 242.499zM852 1464c100.667 0 195.999 -18.6689 285.999 -56.002s170 -91.666 240 -162.999c68.667 -69.333 121.334 -148.666 158.001 -237.999
s55 -182.666 55 -279.999c0 -100.667 -18.333 -195.167 -55 -283.5s-90 -166.5 -160 -234.5c-72.667 -70.667 -154.167 -124.834 -244.5 -162.501s-183.5 -56.5 -279.5 -56.5c-98 0 -191.5 18.833 -280.5 56.5s-168.833 92.5 -239.5 164.5
c-70 70.667 -123.333 150.167 -160 238.5s-55 180.833 -55 277.5c0 97.333 19.167 191.5 57.5 282.5s93.5 172.833 165.5 245.5c67.333 68.667 144.5 120.667 231.5 156s180.5 53 280.5 53z" />
    <glyph glyph-name="macron" unicode="&#xaf;" 
d="M242 1335v140h540v-140h-540z" />
    <glyph glyph-name="degree" unicode="&#xb0;" horiz-adv-x="674" 
d="M530 1169c0 54 -18.5 99.667 -55.5 137s-82.5 56 -136.5 56s-100 -18.667 -138 -56s-57 -83 -57 -137s19 -100.167 57 -138.5s84 -57.5 138 -57.5s99.5 19.167 136.5 57.5s55.5 84.5 55.5 138.5zM338 1456c78.667 0 146.167 -28.167 202.5 -84.5s84.5 -124.5 84.5 -204.5
c0 -79.333 -28 -146.833 -84 -202.5s-124.333 -83.5 -205 -83.5s-148.667 27.667 -204 83s-83 123 -83 203s28.167 148.167 84.5 204.5s124.5 84.5 204.5 84.5z" />
    <glyph glyph-name="plusminus" unicode="&#xb1;" horiz-adv-x="1706" 
d="M1452 170v-141h-1198v141h1198zM924 1192v-340h528v-139h-528v-340h-142v340h-528v139h528v340h142z" />
    <glyph glyph-name="twosuperior" unicode="&#xb2;" horiz-adv-x="774" 
d="M690 582l-607.999 0.000976562v120l335 295l4 3c89.333 78 134 142.667 134 194c0 44.667 -16.5 82.167 -49.5 112.5s-74.5 45.5 -124.5 45.5c-52.667 0 -93.834 -15.333 -123.501 -46s-44.5 -73.334 -44.5 -128.001v-11h-131v2c0 91.333 28.5 164.333 85.5 219
s132.167 82 225.5 82c84 0 154.833 -26.167 212.5 -78.5s86.5 -116.166 86.5 -191.499c0 -42.667 -10.667 -82.834 -32 -120.501s-57 -78.167 -107 -121.5l-299 -256h436v-120z" />
    <glyph glyph-name="threesuperior" unicode="&#xb3;" horiz-adv-x="774" 
d="M70 850l128.001 0.000976562c2.66699 -49.333 20.167 -89.666 52.5 -120.999s73.166 -47 122.499 -47c52.667 0 96.834 16.167 132.501 48.5s53.5 72.833 53.5 121.5c0 53.333 -18.333 95 -55 125s-88 45 -154 45h-35l1 119
c2.66699 -0.666992 6.16699 -1.16699 10.5 -1.5s10.166 -0.5 17.499 -0.5c49.333 0 86.666 9.16699 111.999 27.5s38 45.833 38 82.5c0 30.667 -10.667 56.167 -32 76.5s-47.666 30.5 -78.999 30.5c-36 0 -64.333 -9.33301 -85 -28s-32 -44.667 -34 -78h-127
c3.33301 67.333 27.666 121.333 72.999 162s104.333 61 177 61c66.667 0 123.334 -21.333 170.001 -64s70 -94 70 -154c0 -35.333 -7.83301 -66.333 -23.5 -93s-39.5 -49.334 -71.5 -68.001c51.333 -18.667 90.833 -48.167 118.5 -88.5s41.5 -88.833 41.5 -145.5
c0 -83.333 -29.833 -153.333 -89.5 -210s-133.5 -85 -221.5 -85c-95.333 0 -170.5 25.167 -225.5 75.5s-83.5 120.166 -85.5 209.499z" />
    <glyph glyph-name="acute" unicode="&#xb4;" 
d="M369 1241l204 348h201l-285 -348h-120z" />
    <glyph glyph-name="mu" unicode="&#xb5;" horiz-adv-x="1151" 
d="M385 1071l-128.999 -599.999c-4.66699 -21.333 -8.16699 -42.833 -10.5 -64.5s-3.5 -44.5 -3.5 -68.5c0 -66 17.333 -117 52 -153s84 -54 148 -54c88 0 157.5 30.833 208.5 92.5s92.167 165.5 123.5 311.5l115 536h178l-156 -732c-0.666992 -4 -2 -10.667 -4 -20
c-12 -58 -18 -95.333 -18 -112c0 -24.667 5.5 -42.167 16.5 -52.5s29.5 -15.5 55.5 -15.5c8 0 14.167 0.166992 18.5 0.5s8.83301 0.833008 13.5 1.5l-31 -143c-16 -3.33301 -32.667 -5.83301 -50 -7.5s-36.666 -2.5 -57.999 -2.5c-42 0 -74.333 9.66699 -97 29
s-40 52.666 -52 99.999c-30 -44 -67.5 -76.833 -112.5 -98.5s-97.833 -32.5 -158.5 -32.5c-54.667 0 -102.334 9.16699 -143.001 27.5s-78.334 47.833 -113.001 88.5l-110 -530h-181l318 1499h180z" />
    <glyph glyph-name="paragraph" unicode="&#xb6;" 
d="M958 1393h-120.002v-1393h-111v1393h-176v-1393h-113v782c-113.333 5.33301 -203.666 39.5 -270.999 102.5s-101 144.833 -101 245.5c0 104.667 35.833 189 107.5 253s166.834 96 285.501 96h499v-86z" />
    <glyph glyph-name="periodcentered" unicode="&#xb7;" horiz-adv-x="586" 
d="M180 729c0 30.667 11 56.834 33 78.501s48.667 32.5 80 32.5c30.667 0 56.667 -10.833 78 -32.5s32 -47.834 32 -78.501c0 -31.333 -10.667 -58 -32 -80s-47.333 -33 -78 -33c-31.333 0 -58 11 -80 33s-33 48.667 -33 80z" />
    <glyph glyph-name="cedilla" unicode="&#xb8;" 
d="M256 -426l-0.00292969 99.999c52.667 -12 100.334 -21.5 143.001 -28.5s77 -10.5 103 -10.5c40 0 70.167 6.83301 90.5 20.5s30.5 34.167 30.5 61.5c0 29.333 -10.833 51 -32.5 65s-55.5 21 -101.5 21c-13.333 0 -23.666 -0.166992 -30.999 -0.5
s-14.666 -0.5 -21.999 -0.5v198h76v-102h29c72.667 0 128 -15.333 166 -46s57 -75.667 57 -135c0 -60.667 -21.333 -107.167 -64 -139.5s-104.667 -48.5 -186 -48.5c-33.333 0 -71.833 3.83301 -115.5 11.5s-91.167 18.834 -142.5 33.501z" />
    <glyph glyph-name="onesuperior" unicode="&#xb9;" horiz-adv-x="772" 
d="M469 582h-141v770h-168v104h309v-874z" />
    <glyph glyph-name="ordmasculine" unicode="&#xba;" horiz-adv-x="932" 
d="M195 1071c0 -76.667 25.832 -140.5 77.499 -191.5s116.5 -76.5 194.5 -76.5c76.667 0 140.834 25.667 192.501 77s77.5 115.666 77.5 192.999c0 78.667 -25.833 143.334 -77.5 194.001s-116.5 76 -194.5 76c-76 0 -140 -25.833 -192 -77.5s-78 -116.5 -78 -194.5z
M40.999 1071c0 55.333 9.83203 106.67 29.499 154.003s48.834 89.666 87.501 126.999c41.333 41.333 88 73.166 140 95.499s105.667 33.5 161 33.5c59.333 0 114.666 -10 165.999 -30s98.333 -49.667 141 -89c40 -39.333 70.833 -83.166 92.5 -131.499
s32.5 -98.166 32.5 -149.499c0 -52 -10 -103.167 -30 -153.5s-48.333 -94.5 -85 -132.5c-42.667 -42.667 -90 -74.834 -142 -96.501s-107.667 -32.5 -167 -32.5c-60.667 0 -116.5 10 -167.5 30s-96.167 49.333 -135.5 88c-39.333 37.333 -69.666 81.166 -90.999 131.499
s-32 102.166 -32 155.499z" />
    <glyph glyph-name="guillemotright" unicode="&#xbb;" horiz-adv-x="1032" 
d="M152 238l243 311l-243 313h151l248 -311l-248 -313h-151zM508 238l242 311l-242 313h149l248 -311l-248 -313h-149z" />
    <glyph glyph-name="onequarter" unicode="&#xbc;" horiz-adv-x="1819" 
d="M1667 0h-129v141h-403v105l403 569h129v-569h92v-105h-92v-141zM1538 246v401l-274 -401h274zM1276 1485h143l-878 -1514h-146zM449 641h-136v719h-159v96h295v-815z" />
    <glyph glyph-name="onehalf" unicode="&#xbd;" horiz-adv-x="1819" 
d="M1737 0l-579.998 0.000976562v113l322 274l2 2c86 74 129 134.667 129 182c0 42.667 -15.667 78 -47 106s-71 42 -119 42c-50.667 0 -90.334 -14.333 -119.001 -43s-43 -68.334 -43 -119.001v-10h-125v2c0 84.667 27.167 152.5 81.5 203.5s126.166 76.5 215.499 76.5
c80 0 147.833 -24.5 203.5 -73.5s83.5 -108.167 83.5 -177.5c0 -40.667 -10.333 -78.5 -31 -113.5s-54.667 -72.5 -102 -112.5l-287 -239h416v-113zM1276 1485h143l-878 -1514h-146zM449.002 641.001h-136v719h-159v96h295v-815z" />
    <glyph glyph-name="threequarters" unicode="&#xbe;" horiz-adv-x="1819" 
d="M1667 0h-129v141h-403v105l403 569h129v-569h92v-105h-92v-141zM1538 246v401l-274 -401h274zM1276 1485h143l-878 -1514h-146zM66 891h123.998c2.66699 -46 19.5 -83.5 50.5 -112.5s69.5 -43.5 115.5 -43.5c50 0 91.833 15.167 125.5 45.5s50.5 67.833 50.5 112.5
c0 50.667 -17.167 90 -51.5 118s-83.166 42 -146.499 42c-9.33301 0 -16.166 -0.166992 -20.499 -0.5s-8.5 -0.833008 -12.5 -1.5v112c4 -0.666992 8 -1.16699 12 -1.5s9.66699 -0.5 17 -0.5c46.667 0 81.834 8.66699 105.501 26s35.5 43 35.5 77
c0 28.667 -10.167 52.5 -30.5 71.5s-45.5 28.5 -75.5 28.5c-33.333 0 -60 -9 -80 -27s-31 -42.333 -33 -73h-121c3.33301 63.333 26.5 114 69.5 152s99.167 57 168.5 57c64 0 118.167 -20 162.5 -60s66.5 -87.667 66.5 -143c0 -33.333 -7.33301 -62.333 -22 -87
s-37.334 -46.334 -68.001 -65.001c49.333 -17.333 87.333 -44.833 114 -82.5s40 -82.5 40 -134.5c0 -77.333 -28.5 -142.666 -85.5 -195.999s-127.5 -80 -211.5 -80c-92 0 -164.333 23.333 -217 70s-80 112 -82 196z" />
    <glyph glyph-name="questiondown" unicode="&#xbf;" horiz-adv-x="995" 
d="M637 1075c-1.33301 -68.667 -14 -134.331 -38 -196.998s-59 -122 -105 -178c-15.333 -17.333 -38 -41.333 -68 -72c-82 -81.333 -123 -157.666 -123 -228.999c0 -69.333 22 -125.5 66 -168.5s102 -64.5 174 -64.5c65.333 0 118 22.667 158 68s61 106.333 63 183l198 1
c-2 -130.667 -44.167 -237.834 -126.5 -321.501s-185.5 -125.5 -309.5 -125.5s-227.333 40.667 -310 122s-124 182.666 -124 303.999c0 114 58.333 231.667 175 353l12 12c58.667 60.667 98.5 113.667 119.5 159s32.833 96.666 35.5 153.999h203zM637 1456v-235h-197v235
h197z" />
    <glyph glyph-name="Agrave" unicode="&#xc0;" horiz-adv-x="1233" 
d="M813 629l-205 553l-209 -553h414zM324 424l-164 -424h-223l569 1456h205l569 -1456h-231l-160 424h-565zM751 1591h-120l-285 348h201z" />
    <glyph glyph-name="Aacute" unicode="&#xc1;" horiz-adv-x="1233" 
d="M813 629l-205 553l-209 -553h414zM324 424l-164 -424h-223l569 1456h205l569 -1456h-231l-160 424h-565zM465 1591l204 348h201l-285 -348h-120z" />
    <glyph glyph-name="Acircumflex" unicode="&#xc2;" horiz-adv-x="1233" 
d="M813 629l-205 553l-209 -553h414zM324 424l-164 -424h-223l569 1456h205l569 -1456h-231l-160 424h-565zM313 1591l197 348h196l197 -348h-123l-172 229l-174 -229h-121z" />
    <glyph glyph-name="Atilde" unicode="&#xc3;" horiz-adv-x="1233" 
d="M813 629l-205 553l-209 -553h414zM324 424l-164 -424h-223l569 1456h205l569 -1456h-231l-160 424h-565zM901 1868c-13.333 -67.333 -36.833 -118.668 -70.5 -154.001s-75.834 -53 -126.501 -53c-9.33301 0 -19.5 0.833008 -30.5 2.5s-22.5 4.16699 -34.5 7.5l-97 27
c-8.66699 2.66699 -17.167 4.66699 -25.5 6s-16.166 2 -23.499 2c-20.667 0 -38.5 -5.83301 -53.5 -17.5s-27.167 -29.167 -36.5 -52.5h-88c12 66.667 34.667 117.834 68 153.501s75 53.5 125 53.5c11.333 0 22 -0.666992 32 -2s19 -3.33301 27 -6l99 -29
c10 -2.66699 19.333 -4.66699 28 -6s17 -2 25 -2c22 0 40.833 5.66699 56.5 17s28.167 29 37.5 53h88z" />
    <glyph glyph-name="Adieresis" unicode="&#xc4;" horiz-adv-x="1233" 
d="M813 629l-205 553l-209 -553h414zM324 424l-164 -424h-223l569 1456h205l569 -1456h-231l-160 424h-565zM694 1650v209h184v-209h-184zM338 1650v209h184v-209h-184z" />
    <glyph glyph-name="Aring" unicode="&#xc5;" horiz-adv-x="1233" 
d="M485 1741c0 -33.333 11.3311 -61.5 33.998 -84.5s50.334 -34.5 83.001 -34.5c33.333 0 61.833 11.667 85.5 35s35.5 51.333 35.5 84c0 32 -12 60.167 -36 84.5s-52.333 36.5 -85 36.5c-31.333 0 -58.666 -12 -81.999 -36s-35 -52.333 -35 -85zM366.998 1739
c0 64.667 22.667 119.669 68 165.002s100.333 68 165 68s119.834 -22.667 165.501 -68s68.5 -100.333 68.5 -165s-22.833 -119.834 -68.5 -165.501s-100.834 -68.5 -165.501 -68.5c-65.333 0 -120.5 22.667 -165.5 68s-67.5 100.666 -67.5 165.999zM812.998 629.002
l-207 553l-207 -553h414zM323.998 424.002l-164 -424h-223l567 1448h207l569 -1448h-236l-155 424h-565z" />
    <glyph glyph-name="AE" unicode="&#xc6;" horiz-adv-x="1720" 
d="M834 606v656h-33l-357 -656h390zM834 406h-502l-221 -406h-234l807 1456h905v-194h-547v-435h547v-190h-547v-436h547v-201h-755v406z" />
    <glyph glyph-name="Ccedilla" unicode="&#xc7;" horiz-adv-x="1540" 
d="M1452 365c-63.333 -127.333 -150.834 -224.835 -262.501 -292.502s-241.167 -101.5 -388.5 -101.5c-109.333 0 -210.166 21 -302.499 63s-175.166 104.333 -248.499 187c-62 68.667 -109 146.834 -141 234.501s-48 181.5 -48 281.5c0 101.333 19.333 197.5 58 288.5
s95.334 173.833 170.001 248.5c70.667 69.333 149.167 121.833 235.5 157.5s179.166 53.5 278.499 53.5c149.333 0 280.5 -35.333 393.5 -106s198.167 -170.667 255.5 -300h-248c-46.667 64.667 -104 113.334 -172 146.001s-145 49 -231 49c-68.667 0 -134 -13 -196 -39
s-117 -63.667 -165 -113c-50 -51.333 -89 -111 -117 -179s-42 -137.333 -42 -208c0 -76 12.667 -147.833 38 -215.5s61.666 -126.167 108.999 -175.5c50 -52 107.667 -92.333 173 -121s132 -43 200 -43c83.333 0 158.5 15.833 225.5 47.5s122.167 77.5 165.5 137.5h260z
M534.999 -426.002l-0.00292969 99.999c52.667 -12 100.334 -21.5 143.001 -28.5s77 -10.5 103 -10.5c40 0 70.167 6.83301 90.5 20.5s30.5 34.167 30.5 61.5c0 29.333 -10.833 51 -32.5 65s-55.5 21 -101.5 21c-13.333 0 -23.666 -0.166992 -30.999 -0.5
s-14.666 -0.5 -21.999 -0.5v198h76v-102h29c72.667 0 128 -15.333 166 -46s57 -75.667 57 -135c0 -60.667 -21.333 -107.167 -64 -139.5s-104.667 -48.5 -186 -48.5c-33.333 0 -71.833 3.83301 -115.5 11.5s-91.167 18.834 -142.5 33.501z" />
    <glyph glyph-name="Egrave" unicode="&#xc8;" horiz-adv-x="1014" 
d="M883 0h-756v1456h756v-194h-545v-435h545v-190h-545v-436h545v-201zM647 1591h-120l-285 348h201z" />
    <glyph glyph-name="Eacute" unicode="&#xc9;" horiz-adv-x="1014" 
d="M883 0h-756v1456h756v-194h-545v-435h545v-190h-545v-436h545v-201zM361 1591l204 348h201l-285 -348h-120z" />
    <glyph glyph-name="Ecircumflex" unicode="&#xca;" horiz-adv-x="1014" 
d="M883 0h-756v1456h756v-194h-545v-435h545v-190h-545v-436h545v-201zM209 1591l197 348h196l197 -348h-123l-172 229l-174 -229h-121z" />
    <glyph glyph-name="Edieresis" unicode="&#xcb;" horiz-adv-x="1014" 
d="M883 0h-756v1456h756v-194h-545v-435h545v-190h-545v-436h545v-201zM590 1650v209h184v-209h-184zM234 1650v209h184v-209h-184z" />
    <glyph glyph-name="Igrave" unicode="&#xcc;" horiz-adv-x="465" 
d="M338 0h-211v1456h211v-1456zM376 1591h-120l-285 348h201z" />
    <glyph glyph-name="Iacute" unicode="&#xcd;" horiz-adv-x="465" 
d="M338 0h-211v1456h211v-1456zM90 1591l204 348h201l-285 -348h-120z" />
    <glyph glyph-name="Icircumflex" unicode="&#xce;" horiz-adv-x="465" 
d="M338 0h-211v1456h211v-1456zM-62 1591l197 348h196l197 -348h-123l-172 229l-174 -229h-121z" />
    <glyph glyph-name="Idieresis" unicode="&#xcf;" horiz-adv-x="465" 
d="M338 0h-211v1456h211v-1456zM319 1650v209h184v-209h-184zM-37 1650v209h184v-209h-184z" />
    <glyph glyph-name="Eth" unicode="&#xd0;" horiz-adv-x="1407" 
d="M551 0h-409.999v647h-151v176h151v633h467c219.333 0 396 -67.667 530 -203s201 -312 201 -530c0 -124.667 -24.833 -238 -74.5 -340s-121.5 -186.667 -215.5 -254c-64 -46 -132.333 -79 -205 -99s-170.334 -30 -293.001 -30zM346.001 195h255.999
c162.667 0 291 47.167 385 141.5s141 222.5 141 384.5c0 167.333 -50.167 298.5 -150.5 393.5s-239.166 142.5 -416.499 142.5h-215v-434h340v-176h-340v-452z" />
    <glyph glyph-name="Ntilde" unicode="&#xd1;" horiz-adv-x="1384" 
d="M338 0h-211v1456h217l715 -1102l-10 1102h208v-1456h-202l-731 1135zM985 1868c-13.333 -67.333 -36.833 -118.668 -70.5 -154.001s-75.834 -53 -126.501 -53c-9.33301 0 -19.5 0.833008 -30.5 2.5s-22.5 4.16699 -34.5 7.5l-97 27
c-8.66699 2.66699 -17.167 4.66699 -25.5 6s-16.166 2 -23.499 2c-20.667 0 -38.5 -5.83301 -53.5 -17.5s-27.167 -29.167 -36.5 -52.5h-88c12 66.667 34.667 117.834 68 153.501s75 53.5 125 53.5c11.333 0 22 -0.666992 32 -2s19 -3.33301 27 -6l99 -29
c10 -2.66699 19.333 -4.66699 28 -6s17 -2 25 -2c22 0 40.833 5.66699 56.5 17s28.167 29 37.5 53h88z" />
    <glyph glyph-name="Ograve" unicode="&#xd2;" horiz-adv-x="1612" 
d="M281 735c0 -76 12.668 -147.832 38.001 -215.499s61.666 -126.167 108.999 -175.5c50 -52 107.667 -92.333 173 -121s132 -43 200 -43c150.667 0 276.667 53.5 378 160.5s152 239.833 152 398.5c0 67.333 -12.167 131.5 -36.5 192.5s-59.833 117.167 -106.5 168.5
c-55.333 59.333 -114.5 103.166 -177.5 131.499s-132.833 42.5 -209.5 42.5c-68.667 0 -134 -13 -196 -39s-117 -63.667 -165 -113c-50 -51.333 -89 -111 -117 -179s-42 -137.333 -42 -208zM61.001 737.001c0 102 19.3311 198.667 57.998 290
s95.334 173.666 170.001 246.999c70.667 69.333 149.167 121.833 235.5 157.5s179.166 53.5 278.499 53.5c102 0 196.5 -17.833 283.5 -53.5s166.5 -88.834 238.5 -159.501c74 -72.667 129.667 -154 167 -244s56 -187 56 -291c0 -103.333 -16 -198.5 -48 -285.5
s-80 -165.167 -144 -234.5c-75.333 -81.333 -159.5 -142.666 -252.5 -183.999s-193.833 -62 -302.5 -62c-109.333 0 -210.166 21 -302.499 63s-175.166 104.333 -248.499 187c-62 68.667 -109 146.834 -141 234.501s-48 181.5 -48 281.5zM949.999 1591h-120l-285 348h201z
" />
    <glyph glyph-name="Oacute" unicode="&#xd3;" horiz-adv-x="1612" 
d="M281 735c0 -76 12.668 -147.832 38.001 -215.499s61.666 -126.167 108.999 -175.5c50 -52 107.667 -92.333 173 -121s132 -43 200 -43c150.667 0 276.667 53.5 378 160.5s152 239.833 152 398.5c0 67.333 -12.167 131.5 -36.5 192.5s-59.833 117.167 -106.5 168.5
c-55.333 59.333 -114.5 103.166 -177.5 131.499s-132.833 42.5 -209.5 42.5c-68.667 0 -134 -13 -196 -39s-117 -63.667 -165 -113c-50 -51.333 -89 -111 -117 -179s-42 -137.333 -42 -208zM61.001 737.001c0 102 19.3311 198.667 57.998 290
s95.334 173.666 170.001 246.999c70.667 69.333 149.167 121.833 235.5 157.5s179.166 53.5 278.499 53.5c102 0 196.5 -17.833 283.5 -53.5s166.5 -88.834 238.5 -159.501c74 -72.667 129.667 -154 167 -244s56 -187 56 -291c0 -103.333 -16 -198.5 -48 -285.5
s-80 -165.167 -144 -234.5c-75.333 -81.333 -159.5 -142.666 -252.5 -183.999s-193.833 -62 -302.5 -62c-109.333 0 -210.166 21 -302.499 63s-175.166 104.333 -248.499 187c-62 68.667 -109 146.834 -141 234.501s-48 181.5 -48 281.5zM663.999 1591l204 348h201
l-285 -348h-120z" />
    <glyph glyph-name="Ocircumflex" unicode="&#xd4;" horiz-adv-x="1612" 
d="M281 735c0 -76 12.668 -147.832 38.001 -215.499s61.666 -126.167 108.999 -175.5c50 -52 107.667 -92.333 173 -121s132 -43 200 -43c150.667 0 276.667 53.5 378 160.5s152 239.833 152 398.5c0 67.333 -12.167 131.5 -36.5 192.5s-59.833 117.167 -106.5 168.5
c-55.333 59.333 -114.5 103.166 -177.5 131.499s-132.833 42.5 -209.5 42.5c-68.667 0 -134 -13 -196 -39s-117 -63.667 -165 -113c-50 -51.333 -89 -111 -117 -179s-42 -137.333 -42 -208zM61.001 737.001c0 102 19.3311 198.667 57.998 290
s95.334 173.666 170.001 246.999c70.667 69.333 149.167 121.833 235.5 157.5s179.166 53.5 278.499 53.5c102 0 196.5 -17.833 283.5 -53.5s166.5 -88.834 238.5 -159.501c74 -72.667 129.667 -154 167 -244s56 -187 56 -291c0 -103.333 -16 -198.5 -48 -285.5
s-80 -165.167 -144 -234.5c-75.333 -81.333 -159.5 -142.666 -252.5 -183.999s-193.833 -62 -302.5 -62c-109.333 0 -210.166 21 -302.499 63s-175.166 104.333 -248.499 187c-62 68.667 -109 146.834 -141 234.501s-48 181.5 -48 281.5zM511.999 1591l197 348h196l197 -348
h-123l-172 229l-174 -229h-121z" />
    <glyph glyph-name="Otilde" unicode="&#xd5;" horiz-adv-x="1612" 
d="M281 735c0 -76 12.668 -147.832 38.001 -215.499s61.666 -126.167 108.999 -175.5c50 -52 107.667 -92.333 173 -121s132 -43 200 -43c150.667 0 276.667 53.5 378 160.5s152 239.833 152 398.5c0 67.333 -12.167 131.5 -36.5 192.5s-59.833 117.167 -106.5 168.5
c-55.333 59.333 -114.5 103.166 -177.5 131.499s-132.833 42.5 -209.5 42.5c-68.667 0 -134 -13 -196 -39s-117 -63.667 -165 -113c-50 -51.333 -89 -111 -117 -179s-42 -137.333 -42 -208zM61.001 737.001c0 102 19.3311 198.667 57.998 290
s95.334 173.666 170.001 246.999c70.667 69.333 149.167 121.833 235.5 157.5s179.166 53.5 278.499 53.5c102 0 196.5 -17.833 283.5 -53.5s166.5 -88.834 238.5 -159.501c74 -72.667 129.667 -154 167 -244s56 -187 56 -291c0 -103.333 -16 -198.5 -48 -285.5
s-80 -165.167 -144 -234.5c-75.333 -81.333 -159.5 -142.666 -252.5 -183.999s-193.833 -62 -302.5 -62c-109.333 0 -210.166 21 -302.499 63s-175.166 104.333 -248.499 187c-62 68.667 -109 146.834 -141 234.501s-48 181.5 -48 281.5zM1100 1868
c-13.333 -67.333 -36.833 -118.668 -70.5 -154.001s-75.834 -53 -126.501 -53c-9.33301 0 -19.5 0.833008 -30.5 2.5s-22.5 4.16699 -34.5 7.5l-97 27c-8.66699 2.66699 -17.167 4.66699 -25.5 6s-16.166 2 -23.499 2c-20.667 0 -38.5 -5.83301 -53.5 -17.5
s-27.167 -29.167 -36.5 -52.5h-88c12 66.667 34.667 117.834 68 153.501s75 53.5 125 53.5c11.333 0 22 -0.666992 32 -2s19 -3.33301 27 -6l99 -29c10 -2.66699 19.333 -4.66699 28 -6s17 -2 25 -2c22 0 40.833 5.66699 56.5 17s28.167 29 37.5 53h88z" />
    <glyph glyph-name="Odieresis" unicode="&#xd6;" horiz-adv-x="1612" 
d="M281 735c0 -76 12.668 -147.832 38.001 -215.499s61.666 -126.167 108.999 -175.5c50 -52 107.667 -92.333 173 -121s132 -43 200 -43c150.667 0 276.667 53.5 378 160.5s152 239.833 152 398.5c0 67.333 -12.167 131.5 -36.5 192.5s-59.833 117.167 -106.5 168.5
c-55.333 59.333 -114.5 103.166 -177.5 131.499s-132.833 42.5 -209.5 42.5c-68.667 0 -134 -13 -196 -39s-117 -63.667 -165 -113c-50 -51.333 -89 -111 -117 -179s-42 -137.333 -42 -208zM61.001 737.001c0 102 19.3311 198.667 57.998 290
s95.334 173.666 170.001 246.999c70.667 69.333 149.167 121.833 235.5 157.5s179.166 53.5 278.499 53.5c102 0 196.5 -17.833 283.5 -53.5s166.5 -88.834 238.5 -159.501c74 -72.667 129.667 -154 167 -244s56 -187 56 -291c0 -103.333 -16 -198.5 -48 -285.5
s-80 -165.167 -144 -234.5c-75.333 -81.333 -159.5 -142.666 -252.5 -183.999s-193.833 -62 -302.5 -62c-109.333 0 -210.166 21 -302.499 63s-175.166 104.333 -248.499 187c-62 68.667 -109 146.834 -141 234.501s-48 181.5 -48 281.5zM892.999 1650v209h184v-209h-184z
M536.999 1650v209h184v-209h-184z" />
    <glyph glyph-name="multiply" unicode="&#xd7;" horiz-adv-x="1706" 
d="M860 709l469 469l98 -99l-469 -469l469 -469l-98 -96l-469 467l-469 -467l-98 96l469 469l-469 469l98 99z" />
    <glyph glyph-name="Oslash" unicode="&#xd8;" horiz-adv-x="1612" 
d="M1210 1364l192.999 221.001l133 -108l-193 -228c69.333 -70 120.833 -147 154.5 -231s50.5 -177.667 50.5 -281s-16 -198.5 -48 -285.5s-80 -165.167 -144 -234.5c-76 -82 -161.167 -143.5 -255.5 -184.5s-198.5 -61.5 -312.5 -61.5c-78 0 -151 11.167 -219 33.5
s-134 57.166 -198 104.499l-224 -259l-133 117l224 264c-60 76 -104.5 155.667 -133.5 239s-43.5 172.333 -43.5 267c0 101.333 19.333 197.5 58 288.5s95.334 173.833 170.001 248.5c69.333 69.333 147 121.5 233 156.5s179.667 52.5 281 52.5c78.667 0 152 -10 220 -30
s130.333 -49.667 187 -89zM1200 1081l-689.999 -809.001c47.333 -30.667 95.166 -53.667 143.499 -69s97.5 -23 147.5 -23c150.667 0 276.667 53.5 378 160.5s152 239.833 152 398.5c0 64.667 -11 125.834 -33 183.501s-54.667 110.5 -98 158.5zM381 397l688 801
c-42 26 -85 45.167 -129 57.5s-90.333 18.5 -139 18.5c-146.667 0 -270.334 -53.5 -371.001 -160.5s-151 -238.5 -151 -394.5c0 -58.667 8.33301 -114.5 25 -167.5s42.334 -104.5 77.001 -154.5z" />
    <glyph glyph-name="Ugrave" unicode="&#xd9;" horiz-adv-x="1157" 
d="M113 1456l211 0.00292969v-926c0 -132 19.667 -223.667 59 -275s106.333 -77 201 -77c90 0 153.667 26.167 191 78.5s56 143.5 56 273.5v926h211v-924c0 -98.667 -5.5 -174.334 -16.5 -227.001s-29.167 -98.334 -54.5 -137.001c-44 -66.667 -97.5 -116.167 -160.5 -148.5
s-137.167 -48.5 -222.5 -48.5c-93.333 0 -172 15.667 -236 47s-119.333 80.666 -166 147.999c-26 38.667 -44.667 82 -56 130s-17 126.667 -17 236v924zM723 1591h-120l-285 348h201z" />
    <glyph glyph-name="Uacute" unicode="&#xda;" horiz-adv-x="1157" 
d="M113 1456l211 0.00292969v-926c0 -132 19.667 -223.667 59 -275s106.333 -77 201 -77c90 0 153.667 26.167 191 78.5s56 143.5 56 273.5v926h211v-924c0 -98.667 -5.5 -174.334 -16.5 -227.001s-29.167 -98.334 -54.5 -137.001c-44 -66.667 -97.5 -116.167 -160.5 -148.5
s-137.167 -48.5 -222.5 -48.5c-93.333 0 -172 15.667 -236 47s-119.333 80.666 -166 147.999c-26 38.667 -44.667 82 -56 130s-17 126.667 -17 236v924zM437 1591l204 348h201l-285 -348h-120z" />
    <glyph glyph-name="Ucircumflex" unicode="&#xdb;" horiz-adv-x="1157" 
d="M113 1456l211 0.00292969v-926c0 -132 19.667 -223.667 59 -275s106.333 -77 201 -77c90 0 153.667 26.167 191 78.5s56 143.5 56 273.5v926h211v-924c0 -98.667 -5.5 -174.334 -16.5 -227.001s-29.167 -98.334 -54.5 -137.001c-44 -66.667 -97.5 -116.167 -160.5 -148.5
s-137.167 -48.5 -222.5 -48.5c-93.333 0 -172 15.667 -236 47s-119.333 80.666 -166 147.999c-26 38.667 -44.667 82 -56 130s-17 126.667 -17 236v924zM285 1591l197 348h196l197 -348h-123l-172 229l-174 -229h-121z" />
    <glyph glyph-name="Udieresis" unicode="&#xdc;" horiz-adv-x="1157" 
d="M113 1456l211 0.00292969v-926c0 -132 19.667 -223.667 59 -275s106.333 -77 201 -77c90 0 153.667 26.167 191 78.5s56 143.5 56 273.5v926h211v-924c0 -98.667 -5.5 -174.334 -16.5 -227.001s-29.167 -98.334 -54.5 -137.001c-44 -66.667 -97.5 -116.167 -160.5 -148.5
s-137.167 -48.5 -222.5 -48.5c-93.333 0 -172 15.667 -236 47s-119.333 80.666 -166 147.999c-26 38.667 -44.667 82 -56 130s-17 126.667 -17 236v924zM666 1650v209h184v-209h-184zM310 1650v209h184v-209h-184z" />
    <glyph glyph-name="Yacute" unicode="&#xdd;" horiz-adv-x="1010" 
d="M608 524v-524h-211v537l-446 919h235l320 -700l319 700h234zM363 1591l204 348h201l-285 -348h-120z" />
    <glyph glyph-name="Thorn" unicode="&#xde;" horiz-adv-x="1053" 
d="M336 510l153.001 -0.000976562c108.667 0 187.5 19 236.5 57s73.5 98.333 73.5 181s-24.833 143.834 -74.5 183.501s-125.834 59.5 -228.501 59.5h-160v-481zM336.001 314.999v-315.001h-209v1456h209v-270h129c99.333 0 173 -4.66699 221 -14
s90.333 -24.666 127 -45.999c60.667 -34.667 109 -85.167 145 -151.5s54 -137.833 54 -214.5c0 -134.667 -45.833 -242.5 -137.5 -323.5s-215.167 -121.5 -370.5 -121.5h-168z" />
    <glyph glyph-name="germandbls" unicode="&#xdf;" horiz-adv-x="1200" 
d="M307 977l-0.00195312 -596h158c14 -68 41.5 -121.5 82.5 -160.5s89.833 -58.5 146.5 -58.5c65.333 0 122.333 24.5 171 73.5s73 106.5 73 172.5c0 85.333 -28.667 149.333 -86 192s-144 64 -260 64c-9.33301 0 -19.833 -0.333008 -31.5 -1l-52.5 -3v171h4
c73.333 0 131 20.667 173 62s63 98 63 170c0 65.333 -20.667 119.5 -62 162.5s-92.666 64.5 -153.999 64.5c-79.333 0 -136.666 -24.333 -171.999 -73s-53 -128.667 -53 -240zM114.998 969c0 172 33.667 299.663 101 382.996s170.666 125 309.999 125
c126 0 227.833 -37.167 305.5 -111.5s116.5 -171.166 116.5 -290.499c0 -61.333 -11.333 -114.666 -34 -159.999s-55 -78.666 -97 -99.999c104 -28 183.333 -76 238 -144s82 -152.333 82 -253c0 -127.333 -41 -233.666 -123 -318.999s-183.667 -128 -305 -128
c-93.333 0 -173.666 22 -240.999 66s-121 109.333 -161 196v-233h-192v969z" />
    <glyph glyph-name="agrave" unicode="&#xe0;" horiz-adv-x="1319" 
d="M266 557c0 -111.333 36.833 -204.667 110.5 -280s163.834 -113 270.501 -113c97.333 0 183.166 37.833 257.499 113.5s111.5 164.167 111.5 265.5c0 108 -36.833 200.5 -110.5 277.5s-161.167 115.5 -262.5 115.5c-104 0 -192.833 -36.667 -266.5 -110
s-110.5 -163 -110.5 -269zM1006 -0.000976562v135.001c-50.667 -52.667 -107.167 -92.5 -169.5 -119.5s-128.833 -40.5 -199.5 -40.5c-165.333 0 -302.666 55.167 -411.999 165.5s-164 248.5 -164 414.5c0 77.333 13.667 150.666 41 219.999s66.333 130.333 117 183
c55.333 58 115.833 100.833 181.5 128.5s140.5 41.5 224.5 41.5c75.333 0 144.666 -13.333 207.999 -40s121 -67 173 -121v133h200v-1100h-200zM852 1241h-120l-285 348h201z" />
    <glyph glyph-name="aacute" unicode="&#xe1;" horiz-adv-x="1319" 
d="M266 557c0 -111.333 36.833 -204.667 110.5 -280s163.834 -113 270.501 -113c97.333 0 183.166 37.833 257.499 113.5s111.5 164.167 111.5 265.5c0 108 -36.833 200.5 -110.5 277.5s-161.167 115.5 -262.5 115.5c-104 0 -192.833 -36.667 -266.5 -110
s-110.5 -163 -110.5 -269zM1006 -0.000976562v135.001c-50.667 -52.667 -107.167 -92.5 -169.5 -119.5s-128.833 -40.5 -199.5 -40.5c-165.333 0 -302.666 55.167 -411.999 165.5s-164 248.5 -164 414.5c0 77.333 13.667 150.666 41 219.999s66.333 130.333 117 183
c55.333 58 115.833 100.833 181.5 128.5s140.5 41.5 224.5 41.5c75.333 0 144.666 -13.333 207.999 -40s121 -67 173 -121v133h200v-1100h-200zM566 1241l204 348h201l-285 -348h-120z" />
    <glyph glyph-name="acircumflex" unicode="&#xe2;" horiz-adv-x="1319" 
d="M266 557c0 -111.333 36.833 -204.667 110.5 -280s163.834 -113 270.501 -113c97.333 0 183.166 37.833 257.499 113.5s111.5 164.167 111.5 265.5c0 108 -36.833 200.5 -110.5 277.5s-161.167 115.5 -262.5 115.5c-104 0 -192.833 -36.667 -266.5 -110
s-110.5 -163 -110.5 -269zM1006 -0.000976562v135.001c-50.667 -52.667 -107.167 -92.5 -169.5 -119.5s-128.833 -40.5 -199.5 -40.5c-165.333 0 -302.666 55.167 -411.999 165.5s-164 248.5 -164 414.5c0 77.333 13.667 150.666 41 219.999s66.333 130.333 117 183
c55.333 58 115.833 100.833 181.5 128.5s140.5 41.5 224.5 41.5c75.333 0 144.666 -13.333 207.999 -40s121 -67 173 -121v133h200v-1100h-200zM414 1241l197 348h196l197 -348h-123l-172 229l-174 -229h-121z" />
    <glyph glyph-name="atilde" unicode="&#xe3;" horiz-adv-x="1319" 
d="M266 557c0 -111.333 36.833 -204.667 110.5 -280s163.834 -113 270.501 -113c97.333 0 183.166 37.833 257.499 113.5s111.5 164.167 111.5 265.5c0 108 -36.833 200.5 -110.5 277.5s-161.167 115.5 -262.5 115.5c-104 0 -192.833 -36.667 -266.5 -110
s-110.5 -163 -110.5 -269zM1006 -0.000976562v135.001c-50.667 -52.667 -107.167 -92.5 -169.5 -119.5s-128.833 -40.5 -199.5 -40.5c-165.333 0 -302.666 55.167 -411.999 165.5s-164 248.5 -164 414.5c0 77.333 13.667 150.666 41 219.999s66.333 130.333 117 183
c55.333 58 115.833 100.833 181.5 128.5s140.5 41.5 224.5 41.5c75.333 0 144.666 -13.333 207.999 -40s121 -67 173 -121v133h200v-1100h-200zM1002 1518c-13.333 -67.333 -36.833 -118.668 -70.5 -154.001s-75.834 -53 -126.501 -53c-9.33301 0 -19.5 0.833008 -30.5 2.5
s-22.5 4.16699 -34.5 7.5l-97 27c-8.66699 2.66699 -17.167 4.66699 -25.5 6s-16.166 2 -23.499 2c-20.667 0 -38.5 -5.83301 -53.5 -17.5s-27.167 -29.167 -36.5 -52.5h-88c12 66.667 34.667 117.834 68 153.501s75 53.5 125 53.5c11.333 0 22 -0.666992 32 -2
s19 -3.33301 27 -6l99 -29c10 -2.66699 19.333 -4.66699 28 -6s17 -2 25 -2c22 0 40.833 5.66699 56.5 17s28.167 29 37.5 53h88z" />
    <glyph glyph-name="adieresis" unicode="&#xe4;" horiz-adv-x="1319" 
d="M266 557c0 -111.333 36.833 -204.667 110.5 -280s163.834 -113 270.501 -113c97.333 0 183.166 37.833 257.499 113.5s111.5 164.167 111.5 265.5c0 108 -36.833 200.5 -110.5 277.5s-161.167 115.5 -262.5 115.5c-104 0 -192.833 -36.667 -266.5 -110
s-110.5 -163 -110.5 -269zM1006 -0.000976562v135.001c-50.667 -52.667 -107.167 -92.5 -169.5 -119.5s-128.833 -40.5 -199.5 -40.5c-165.333 0 -302.666 55.167 -411.999 165.5s-164 248.5 -164 414.5c0 77.333 13.667 150.666 41 219.999s66.333 130.333 117 183
c55.333 58 115.833 100.833 181.5 128.5s140.5 41.5 224.5 41.5c75.333 0 144.666 -13.333 207.999 -40s121 -67 173 -121v133h200v-1100h-200zM795 1300v209h184v-209h-184zM439 1300v209h184v-209h-184z" />
    <glyph glyph-name="aring" unicode="&#xe5;" horiz-adv-x="1319" 
d="M596 1421c0 -32.667 11.667 -60.5 35 -83.5s51.333 -34.5 84 -34.5s60.667 11.5 84 34.5s35 50.833 35 83.5c0 32 -11.833 59.833 -35.5 83.5s-51.5 35.5 -83.5 35.5s-59.833 -11.667 -83.5 -35s-35.5 -51.333 -35.5 -84zM479 1417c0 65.333 22.667 120.667 68 166
s100.666 68 165.999 68c64 0 118.833 -22.833 164.5 -68.5s68.5 -100.834 68.5 -165.501c0 -64 -22.667 -118.5 -68 -163.5s-100.333 -67.5 -165 -67.5c-65.333 0 -120.666 22.333 -165.999 67s-68 99.334 -68 164.001zM266 557.001c0 -111.333 36.833 -204.667 110.5 -280
s163.834 -113 270.501 -113c97.333 0 183.166 37.833 257.499 113.5s111.5 164.167 111.5 265.5c0 108 -36.833 200.5 -110.5 277.5s-161.167 115.5 -262.5 115.5c-104 0 -192.833 -36.667 -266.5 -110s-110.5 -163 -110.5 -269zM1006 0v135.001
c-50.667 -52.667 -107.167 -92.5 -169.5 -119.5s-128.833 -40.5 -199.5 -40.5c-165.333 0 -302.666 55.167 -411.999 165.5s-164 248.5 -164 414.5c0 77.333 13.667 150.666 41 219.999s66.333 130.333 117 183c55.333 58 115.833 100.833 181.5 128.5
s140.5 41.5 224.5 41.5c75.333 0 144.666 -13.333 207.999 -40s121 -67 173 -121v133h200v-1100h-200z" />
    <glyph glyph-name="ae" unicode="&#xe6;" horiz-adv-x="2191" 
d="M1921 655c-24.667 90.667 -67.3311 160.833 -127.998 210.5s-133.334 74.5 -218.001 74.5c-86.667 0 -161.834 -25.5 -225.501 -76.5s-107.167 -120.5 -130.5 -208.5h702zM266.003 556.999c0 -111.333 36.832 -204.333 110.499 -279s163.834 -112 270.501 -112
c98 0 184 37.5 258 112.5s111 163.167 111 264.5c0 108.667 -37 202 -111 280s-161.333 117 -262 117c-103.333 0 -192 -37.333 -266 -112s-111 -165 -111 -271zM1184 -0.000976562l-178.001 0.00195312v135c-52 -53.333 -109.167 -94 -171.5 -122
s-128.166 -42 -197.499 -42c-165.333 0 -302.666 55.667 -411.999 167s-164 250.333 -164 417c0 77.333 13.667 150.666 41 219.999s66.333 130.333 117 183c56 59.333 117.167 103.333 183.5 132s140.5 43 222.5 43c73.333 0 141.833 -13.833 205.5 -41.5
s122.834 -69.167 177.501 -124.5v133h176v-125c57.333 53.333 117.833 93 181.5 119s132.834 39 207.501 39c92 0 178.833 -22.5 260.5 -67.5s149.834 -107.833 204.501 -188.5c32 -50 55.667 -104.833 71 -164.5s23 -127.834 23 -204.501v-31h-924
c16.667 -92.667 58 -167.667 124 -225s144.333 -86 235 -86c65.333 0 125.166 16 179.499 48s97.5 76.667 129.5 134h221c-50.667 -122 -121.334 -215.333 -212.001 -280s-196 -97 -316 -97c-76.667 0 -146.834 12.667 -210.501 38s-121.834 63.333 -174.501 114v-123z" />
    <glyph glyph-name="ccedilla" unicode="&#xe7;" horiz-adv-x="1241" 
d="M1161 375c-46 -132.667 -114.332 -233.167 -204.999 -301.5s-201 -102.5 -331 -102.5c-82 0 -156.333 14.167 -223 42.5s-127 70.833 -181 127.5c-51.333 54 -91.5 116.833 -120.5 188.5s-43.5 144.834 -43.5 219.501c0 76.667 13.167 148.5 39.5 215.5
s65.166 128.167 116.499 183.5c56.667 60.667 120.334 106.667 191.001 138s146.334 47 227.001 47c126 0 235.333 -34.833 328 -104.5s160 -167.5 202 -293.5h-217c-34.667 67.333 -79.334 117.666 -134.001 150.999s-120 50 -196 50c-98 0 -181.167 -37 -249.5 -111
s-102.5 -165.333 -102.5 -274c0 -110 34.667 -201.667 104 -275s155.666 -110 258.999 -110c69.333 0 132 18.167 188 54.5s99.667 87.833 131 154.5h217zM365.001 -426l-0.00292969 99.999c52.667 -12 100.334 -21.5 143.001 -28.5s77 -10.5 103 -10.5
c40 0 70.167 6.83301 90.5 20.5s30.5 34.167 30.5 61.5c0 29.333 -10.833 51 -32.5 65s-55.5 21 -101.5 21c-13.333 0 -23.666 -0.166992 -30.999 -0.5s-14.666 -0.5 -21.999 -0.5v198h76v-102h29c72.667 0 128 -15.333 166 -46s57 -75.667 57 -135
c0 -60.667 -21.333 -107.167 -64 -139.5s-104.667 -48.5 -186 -48.5c-33.333 0 -71.833 3.83301 -115.5 11.5s-91.167 18.834 -142.5 33.501z" />
    <glyph glyph-name="egrave" unicode="&#xe8;" horiz-adv-x="1245" 
d="M973 655c-24.667 90.667 -67.3311 160.833 -127.998 210.5s-133.334 74.5 -218.001 74.5c-86.667 0 -161.834 -25.5 -225.501 -76.5s-107.5 -120.5 -131.5 -208.5h703zM264.003 476.999c16.667 -92 58.167 -166.497 124.5 -223.497s145.166 -85.5 236.499 -85.5
c65.333 0 124.833 15.667 178.5 47s96.5 75.666 128.5 132.999h223c-50.667 -122 -121.5 -215.333 -212.5 -280s-196.833 -97 -317.5 -97c-81.333 0 -155.666 14.333 -222.999 43s-128.333 71.667 -183 129c-51.333 54 -91.5 116.833 -120.5 188.5
s-43.5 144.834 -43.5 219.501c0 77.333 13.167 149.666 39.5 216.999s65.166 128.666 116.499 183.999c54.667 60 116.334 105.167 185.001 135.5s143.667 45.5 225 45.5c96.667 0 186.5 -22.5 269.5 -67.5s151.5 -107.833 205.5 -188.5c32 -50 55.667 -104.833 71 -164.5
s23 -127.834 23 -204.501v-31h-926zM776.003 1241h-120l-285 348h201z" />
    <glyph glyph-name="eacute" unicode="&#xe9;" horiz-adv-x="1245" 
d="M973 655c-24.667 90.667 -67.3311 160.833 -127.998 210.5s-133.334 74.5 -218.001 74.5c-86.667 0 -161.834 -25.5 -225.501 -76.5s-107.5 -120.5 -131.5 -208.5h703zM264.003 476.999c16.667 -92 58.167 -166.497 124.5 -223.497s145.166 -85.5 236.499 -85.5
c65.333 0 124.833 15.667 178.5 47s96.5 75.666 128.5 132.999h223c-50.667 -122 -121.5 -215.333 -212.5 -280s-196.833 -97 -317.5 -97c-81.333 0 -155.666 14.333 -222.999 43s-128.333 71.667 -183 129c-51.333 54 -91.5 116.833 -120.5 188.5
s-43.5 144.834 -43.5 219.501c0 77.333 13.167 149.666 39.5 216.999s65.166 128.666 116.499 183.999c54.667 60 116.334 105.167 185.001 135.5s143.667 45.5 225 45.5c96.667 0 186.5 -22.5 269.5 -67.5s151.5 -107.833 205.5 -188.5c32 -50 55.667 -104.833 71 -164.5
s23 -127.834 23 -204.501v-31h-926zM490.003 1241l204 348h201l-285 -348h-120z" />
    <glyph glyph-name="ecircumflex" unicode="&#xea;" horiz-adv-x="1245" 
d="M973 655c-24.667 90.667 -67.3311 160.833 -127.998 210.5s-133.334 74.5 -218.001 74.5c-86.667 0 -161.834 -25.5 -225.501 -76.5s-107.5 -120.5 -131.5 -208.5h703zM264.003 476.999c16.667 -92 58.167 -166.497 124.5 -223.497s145.166 -85.5 236.499 -85.5
c65.333 0 124.833 15.667 178.5 47s96.5 75.666 128.5 132.999h223c-50.667 -122 -121.5 -215.333 -212.5 -280s-196.833 -97 -317.5 -97c-81.333 0 -155.666 14.333 -222.999 43s-128.333 71.667 -183 129c-51.333 54 -91.5 116.833 -120.5 188.5
s-43.5 144.834 -43.5 219.501c0 77.333 13.167 149.666 39.5 216.999s65.166 128.666 116.499 183.999c54.667 60 116.334 105.167 185.001 135.5s143.667 45.5 225 45.5c96.667 0 186.5 -22.5 269.5 -67.5s151.5 -107.833 205.5 -188.5c32 -50 55.667 -104.833 71 -164.5
s23 -127.834 23 -204.501v-31h-926zM338.003 1241l197 348h196l197 -348h-123l-172 229l-174 -229h-121z" />
    <glyph glyph-name="edieresis" unicode="&#xeb;" horiz-adv-x="1245" 
d="M973 655c-24.667 90.667 -67.3311 160.833 -127.998 210.5s-133.334 74.5 -218.001 74.5c-86.667 0 -161.834 -25.5 -225.501 -76.5s-107.5 -120.5 -131.5 -208.5h703zM264.003 476.999c16.667 -92 58.167 -166.497 124.5 -223.497s145.166 -85.5 236.499 -85.5
c65.333 0 124.833 15.667 178.5 47s96.5 75.666 128.5 132.999h223c-50.667 -122 -121.5 -215.333 -212.5 -280s-196.833 -97 -317.5 -97c-81.333 0 -155.666 14.333 -222.999 43s-128.333 71.667 -183 129c-51.333 54 -91.5 116.833 -120.5 188.5
s-43.5 144.834 -43.5 219.501c0 77.333 13.167 149.666 39.5 216.999s65.166 128.666 116.499 183.999c54.667 60 116.334 105.167 185.001 135.5s143.667 45.5 225 45.5c96.667 0 186.5 -22.5 269.5 -67.5s151.5 -107.833 205.5 -188.5c32 -50 55.667 -104.833 71 -164.5
s23 -127.834 23 -204.501v-31h-926zM719.003 1300v209h184v-209h-184zM363.003 1300v209h184v-209h-184z" />
    <glyph glyph-name="igrave" unicode="&#xec;" horiz-adv-x="432" 
d="M117 0v1100h196v-1100h-196zM360 1241h-120l-285 348h201z" />
    <glyph glyph-name="iacute" unicode="&#xed;" horiz-adv-x="432" 
d="M117 0v1100h196v-1100h-196zM74 1241l204 348h201l-285 -348h-120z" />
    <glyph glyph-name="icircumflex" unicode="&#xee;" horiz-adv-x="432" 
d="M117 0v1100h196v-1100h-196zM-78 1241l197 348h196l197 -348h-123l-172 229l-174 -229h-121z" />
    <glyph glyph-name="idieresis" unicode="&#xef;" horiz-adv-x="432" 
d="M117 0v1100h196v-1100h-196zM303 1300v209h184v-209h-184zM-53 1300v209h184v-209h-184z" />
    <glyph glyph-name="eth" unicode="&#xf0;" horiz-adv-x="1241" 
d="M614 842c-88.667 0 -164 -33.501 -226 -100.501s-93 -149.5 -93 -247.5c0 -98.667 31 -181.167 93 -247.5s138.667 -99.5 230 -99.5c95.333 0 173.833 33.333 235.5 100s92.5 152.334 92.5 257.001c0 96.667 -31.5 177.167 -94.5 241.5s-142.167 96.5 -237.5 96.5z
M872 929.999c-26.667 53.333 -55.165 100.332 -85.498 140.999s-62.5 76.334 -96.5 107.001l-291 -107l-45 115l221 84c-11.333 8 -25.5 16.667 -42.5 26s-46.5 24.333 -88.5 45l60 127c50 -21.333 95.333 -43.333 136 -66s76.667 -45.667 108 -69l292 109l54 -117l-226 -86
c89.333 -95.333 156.166 -198.333 200.499 -309s66.5 -229.667 66.5 -357c0 -181.333 -47.333 -327 -142 -437s-218 -165 -370 -165c-144.667 0 -266.167 50.833 -364.5 152.5s-147.5 226.5 -147.5 374.5c0 66.667 12 130.667 36 192s58.333 116 103 164
c49.333 52.667 105.5 93.167 168.5 121.5s128.167 42.5 195.5 42.5c50 0 96.167 -7.16699 138.5 -21.5s82.166 -36.5 119.499 -66.5z" />
    <glyph glyph-name="ntilde" unicode="&#xf1;" horiz-adv-x="1176" 
d="M315 0h-198v1100h190v-125c41.333 49.333 86.833 85.5 136.5 108.5s106.5 34.5 170.5 34.5c144 0 254.5 -42.333 331.5 -127s115.5 -206 115.5 -364v-627h-199v584c0 116.667 -21.667 203.167 -65 259.5s-110.333 84.5 -201 84.5
c-98.667 0 -170.167 -33.167 -214.5 -99.5s-66.5 -175.833 -66.5 -328.5v-500zM893 1518c-13.333 -67.333 -36.833 -118.668 -70.5 -154.001s-75.834 -53 -126.501 -53c-9.33301 0 -19.5 0.833008 -30.5 2.5s-22.5 4.16699 -34.5 7.5l-97 27
c-8.66699 2.66699 -17.167 4.66699 -25.5 6s-16.166 2 -23.499 2c-20.667 0 -38.5 -5.83301 -53.5 -17.5s-27.167 -29.167 -36.5 -52.5h-88c12 66.667 34.667 117.834 68 153.501s75 53.5 125 53.5c11.333 0 22 -0.666992 32 -2s19 -3.33301 27 -6l99 -29
c10 -2.66699 19.333 -4.66699 28 -6s17 -2 25 -2c22 0 40.833 5.66699 56.5 17s28.167 29 37.5 53h88z" />
    <glyph glyph-name="ograve" unicode="&#xf2;" horiz-adv-x="1241" 
d="M258 551c0 -110 34.834 -201.667 104.501 -275s156.5 -110 260.5 -110c102 0 187.5 36.833 256.5 110.5s103.5 165.834 103.5 276.501c0 111.333 -34.5 203.333 -103.5 276s-155.167 109 -258.5 109c-102.667 0 -188.834 -36.833 -258.501 -110.5
s-104.5 -165.834 -104.5 -276.501zM53.001 549c0 78 13.1709 150.829 39.5039 218.496s65.166 128.5 116.499 182.5c55.333 59.333 117.666 105 186.999 137s141.333 48 216 48c80 0 154.167 -14.333 222.5 -43s130.166 -71 185.499 -127
c54 -55.333 95.5 -117.666 124.5 -186.999s43.5 -141 43.5 -215c0 -75.333 -13.5 -148.666 -40.5 -219.999s-64.833 -133.666 -113.5 -186.999c-56 -61.333 -118.833 -107.833 -188.5 -139.5s-143.834 -47.5 -222.501 -47.5c-80.667 0 -155 14.5 -223 43.5
s-129 71.833 -183 128.5c-51.333 54 -91.5 116.833 -120.5 188.5s-43.5 144.834 -43.5 219.501zM768.005 1241h-120l-285 348h201z" />
    <glyph glyph-name="oacute" unicode="&#xf3;" horiz-adv-x="1241" 
d="M258 551c0 -110 34.834 -201.667 104.501 -275s156.5 -110 260.5 -110c102 0 187.5 36.833 256.5 110.5s103.5 165.834 103.5 276.501c0 111.333 -34.5 203.333 -103.5 276s-155.167 109 -258.5 109c-102.667 0 -188.834 -36.833 -258.501 -110.5
s-104.5 -165.834 -104.5 -276.501zM53.001 549c0 78 13.1709 150.829 39.5039 218.496s65.166 128.5 116.499 182.5c55.333 59.333 117.666 105 186.999 137s141.333 48 216 48c80 0 154.167 -14.333 222.5 -43s130.166 -71 185.499 -127
c54 -55.333 95.5 -117.666 124.5 -186.999s43.5 -141 43.5 -215c0 -75.333 -13.5 -148.666 -40.5 -219.999s-64.833 -133.666 -113.5 -186.999c-56 -61.333 -118.833 -107.833 -188.5 -139.5s-143.834 -47.5 -222.501 -47.5c-80.667 0 -155 14.5 -223 43.5
s-129 71.833 -183 128.5c-51.333 54 -91.5 116.833 -120.5 188.5s-43.5 144.834 -43.5 219.501zM482.005 1241l204 348h201l-285 -348h-120z" />
    <glyph glyph-name="ocircumflex" unicode="&#xf4;" horiz-adv-x="1241" 
d="M258 551c0 -110 34.834 -201.667 104.501 -275s156.5 -110 260.5 -110c102 0 187.5 36.833 256.5 110.5s103.5 165.834 103.5 276.501c0 111.333 -34.5 203.333 -103.5 276s-155.167 109 -258.5 109c-102.667 0 -188.834 -36.833 -258.501 -110.5
s-104.5 -165.834 -104.5 -276.501zM53.001 549c0 78 13.1709 150.829 39.5039 218.496s65.166 128.5 116.499 182.5c55.333 59.333 117.666 105 186.999 137s141.333 48 216 48c80 0 154.167 -14.333 222.5 -43s130.166 -71 185.499 -127
c54 -55.333 95.5 -117.666 124.5 -186.999s43.5 -141 43.5 -215c0 -75.333 -13.5 -148.666 -40.5 -219.999s-64.833 -133.666 -113.5 -186.999c-56 -61.333 -118.833 -107.833 -188.5 -139.5s-143.834 -47.5 -222.501 -47.5c-80.667 0 -155 14.5 -223 43.5
s-129 71.833 -183 128.5c-51.333 54 -91.5 116.833 -120.5 188.5s-43.5 144.834 -43.5 219.501zM330.005 1241l197 348h196l197 -348h-123l-172 229l-174 -229h-121z" />
    <glyph glyph-name="otilde" unicode="&#xf5;" horiz-adv-x="1241" 
d="M258 551c0 -110 34.834 -201.667 104.501 -275s156.5 -110 260.5 -110c102 0 187.5 36.833 256.5 110.5s103.5 165.834 103.5 276.501c0 111.333 -34.5 203.333 -103.5 276s-155.167 109 -258.5 109c-102.667 0 -188.834 -36.833 -258.501 -110.5
s-104.5 -165.834 -104.5 -276.501zM53.001 549c0 78 13.1709 150.829 39.5039 218.496s65.166 128.5 116.499 182.5c55.333 59.333 117.666 105 186.999 137s141.333 48 216 48c80 0 154.167 -14.333 222.5 -43s130.166 -71 185.499 -127
c54 -55.333 95.5 -117.666 124.5 -186.999s43.5 -141 43.5 -215c0 -75.333 -13.5 -148.666 -40.5 -219.999s-64.833 -133.666 -113.5 -186.999c-56 -61.333 -118.833 -107.833 -188.5 -139.5s-143.834 -47.5 -222.501 -47.5c-80.667 0 -155 14.5 -223 43.5
s-129 71.833 -183 128.5c-51.333 54 -91.5 116.833 -120.5 188.5s-43.5 144.834 -43.5 219.501zM918.005 1518c-13.333 -67.333 -36.833 -118.668 -70.5 -154.001s-75.834 -53 -126.501 -53c-9.33301 0 -19.5 0.833008 -30.5 2.5s-22.5 4.16699 -34.5 7.5l-97 27
c-8.66699 2.66699 -17.167 4.66699 -25.5 6s-16.166 2 -23.499 2c-20.667 0 -38.5 -5.83301 -53.5 -17.5s-27.167 -29.167 -36.5 -52.5h-88c12 66.667 34.667 117.834 68 153.501s75 53.5 125 53.5c11.333 0 22 -0.666992 32 -2s19 -3.33301 27 -6l99 -29
c10 -2.66699 19.333 -4.66699 28 -6s17 -2 25 -2c22 0 40.833 5.66699 56.5 17s28.167 29 37.5 53h88z" />
    <glyph glyph-name="odieresis" unicode="&#xf6;" horiz-adv-x="1241" 
d="M258 551c0 -110 34.834 -201.667 104.501 -275s156.5 -110 260.5 -110c102 0 187.5 36.833 256.5 110.5s103.5 165.834 103.5 276.501c0 111.333 -34.5 203.333 -103.5 276s-155.167 109 -258.5 109c-102.667 0 -188.834 -36.833 -258.501 -110.5
s-104.5 -165.834 -104.5 -276.501zM53.001 549c0 78 13.1709 150.829 39.5039 218.496s65.166 128.5 116.499 182.5c55.333 59.333 117.666 105 186.999 137s141.333 48 216 48c80 0 154.167 -14.333 222.5 -43s130.166 -71 185.499 -127
c54 -55.333 95.5 -117.666 124.5 -186.999s43.5 -141 43.5 -215c0 -75.333 -13.5 -148.666 -40.5 -219.999s-64.833 -133.666 -113.5 -186.999c-56 -61.333 -118.833 -107.833 -188.5 -139.5s-143.834 -47.5 -222.501 -47.5c-80.667 0 -155 14.5 -223 43.5
s-129 71.833 -183 128.5c-51.333 54 -91.5 116.833 -120.5 188.5s-43.5 144.834 -43.5 219.501zM711.005 1300v209h184v-209h-184zM355.005 1300v209h184v-209h-184z" />
    <glyph glyph-name="divide" unicode="&#xf7;" horiz-adv-x="1706" 
d="M854 367c34 0 63.333 -12.333 88 -37s37 -54 37 -88c0 -34.667 -12.167 -64.167 -36.5 -88.5s-53.833 -36.5 -88.5 -36.5c-35.333 0 -65 12 -89 36s-36 53.667 -36 89c0 34 12.333 63.333 37 88s54 37 88 37zM1452 680v-139h-1198v139h1198zM854 1106
c34 0 63.333 -12.5 88 -37.5s37 -54.833 37 -89.5c0 -34 -12.167 -63.333 -36.5 -88s-53.833 -37 -88.5 -37s-64.167 12.167 -88.5 36.5s-36.5 53.833 -36.5 88.5s12.333 64.5 37 89.5s54 37.5 88 37.5z" />
    <glyph glyph-name="oslash" unicode="&#xf8;" horiz-adv-x="1241" 
d="M326 322l470.999 567c-30.667 16 -60.5 27.833 -89.5 35.5s-57.167 11.5 -84.5 11.5c-102 0 -188 -37.167 -258 -111.5s-105 -166.833 -105 -277.5c0 -39.333 5.33301 -77.5 16 -114.5s27.334 -73.833 50.001 -110.5zM914.999 782l-471 -573c28 -16 56 -27.833 84 -35.5
s56.667 -11.5 86 -11.5c110 0 199.333 36.667 268 110s103 169 103 287c0 38.667 -5.83301 76.5 -17.5 113.5s-29.167 73.5 -52.5 109.5zM923.999 1040l161 196.998l125 -94l-166 -207c48.667 -56.667 85.167 -116.167 109.5 -178.5s36.5 -127.833 36.5 -196.5
c0 -75.333 -13.5 -148.666 -40.5 -219.999s-64.833 -133.666 -113.5 -186.999c-55.333 -62 -118.166 -108.667 -188.499 -140s-147.5 -47 -231.5 -47c-52.667 0 -104 7.5 -154 22.5s-99 37.5 -147 67.5l-161 -194l-121 106l162 197c-47.333 58 -82.5 118.5 -105.5 181.5
s-34.5 129.5 -34.5 199.5c0 78 13.167 150.833 39.5 218.5s65.166 128.5 116.499 182.5c56 60 118.667 105.333 188 136s143.333 46 222 46c54.667 0 107.5 -7.5 158.5 -22.5s99.167 -37.5 144.5 -67.5z" />
    <glyph glyph-name="ugrave" unicode="&#xf9;" horiz-adv-x="1157" 
d="M1034 0l-190 0.000976562v123c-39.333 -50 -83.5 -87.167 -132.5 -111.5s-103.833 -36.5 -164.5 -36.5c-138.667 0 -246 43 -322 129s-114 207 -114 363v633h198v-576c0 -118.667 21 -207.667 63 -267s105 -89 189 -89c52 0 98.333 12.167 139 36.5s73 59.166 97 104.499
c14.667 28 25.167 61.333 31.5 100s9.5 101 9.5 187v504h196v-1100zM716 1241h-120l-285 348h201z" />
    <glyph glyph-name="uacute" unicode="&#xfa;" horiz-adv-x="1157" 
d="M1034 0l-190 0.000976562v123c-39.333 -50 -83.5 -87.167 -132.5 -111.5s-103.833 -36.5 -164.5 -36.5c-138.667 0 -246 43 -322 129s-114 207 -114 363v633h198v-576c0 -118.667 21 -207.667 63 -267s105 -89 189 -89c52 0 98.333 12.167 139 36.5s73 59.166 97 104.499
c14.667 28 25.167 61.333 31.5 100s9.5 101 9.5 187v504h196v-1100zM430 1241l204 348h201l-285 -348h-120z" />
    <glyph glyph-name="ucircumflex" unicode="&#xfb;" horiz-adv-x="1157" 
d="M1034 0l-190 0.000976562v123c-39.333 -50 -83.5 -87.167 -132.5 -111.5s-103.833 -36.5 -164.5 -36.5c-138.667 0 -246 43 -322 129s-114 207 -114 363v633h198v-576c0 -118.667 21 -207.667 63 -267s105 -89 189 -89c52 0 98.333 12.167 139 36.5s73 59.166 97 104.499
c14.667 28 25.167 61.333 31.5 100s9.5 101 9.5 187v504h196v-1100zM278 1241l197 348h196l197 -348h-123l-172 229l-174 -229h-121z" />
    <glyph glyph-name="udieresis" unicode="&#xfc;" horiz-adv-x="1157" 
d="M1034 0l-190 0.000976562v123c-39.333 -50 -83.5 -87.167 -132.5 -111.5s-103.833 -36.5 -164.5 -36.5c-138.667 0 -246 43 -322 129s-114 207 -114 363v633h198v-576c0 -118.667 21 -207.667 63 -267s105 -89 189 -89c52 0 98.333 12.167 139 36.5s73 59.166 97 104.499
c14.667 28 25.167 61.333 31.5 100s9.5 101 9.5 187v504h196v-1100zM659 1300v209h184v-209h-184zM303 1300v209h184v-209h-184z" />
    <glyph glyph-name="yacute" unicode="&#xfd;" horiz-adv-x="1049" 
d="M6 1100h213l297 -819l322 819h213l-592 -1456h-209l153 387zM381 1241l204 348h201l-285 -348h-120z" />
    <glyph glyph-name="thorn" unicode="&#xfe;" horiz-adv-x="1319" 
d="M672 936c-97.333 0 -183.167 -37.8311 -257.5 -113.498s-111.5 -164.167 -111.5 -265.5c0 -108.667 36.5 -201.334 109.5 -278.001s160.167 -115 261.5 -115c104 0 192.833 36.667 266.5 110s110.5 163 110.5 269c0 111.333 -36.667 204.666 -110 279.999
s-163 113 -269 113zM308.999 133.002v-489.001h-198v1812h198l2 -491c49.333 52 105.333 91.5 168 118.5s129.667 40.5 201 40.5c78 0 150.833 -12.833 218.5 -38.5s127.834 -63.167 180.501 -112.5c55.333 -52 98.833 -115 130.5 -189s47.5 -149 47.5 -225
c0 -169.333 -53.333 -309.666 -160 -420.999s-241.667 -167 -405 -167c-74.667 0 -143.834 13.5 -207.501 40.5s-122.167 67.5 -175.5 121.5z" />
    <glyph glyph-name="ydieresis" unicode="&#xff;" horiz-adv-x="1049" 
d="M6 1100h213l297 -819l322 819h213l-592 -1456h-209l153 387zM610 1300v209h184v-209h-184zM254 1300v209h184v-209h-184z" />
    <glyph glyph-name="Cacute" unicode="&#x106;" horiz-adv-x="1540" 
d="M1452 365c-63.333 -127.333 -150.834 -224.835 -262.501 -292.502s-241.167 -101.5 -388.5 -101.5c-109.333 0 -210.166 21 -302.499 63s-175.166 104.333 -248.499 187c-62 68.667 -109 146.834 -141 234.501s-48 181.5 -48 281.5c0 101.333 19.333 197.5 58 288.5
s95.334 173.833 170.001 248.5c70.667 69.333 149.167 121.833 235.5 157.5s179.166 53.5 278.499 53.5c149.333 0 280.5 -35.333 393.5 -106s198.167 -170.667 255.5 -300h-248c-46.667 64.667 -104 113.334 -172 146.001s-145 49 -231 49c-68.667 0 -134 -13 -196 -39
s-117 -63.667 -165 -113c-50 -51.333 -89 -111 -117 -179s-42 -137.333 -42 -208c0 -76 12.667 -147.833 38 -215.5s61.666 -126.167 108.999 -175.5c50 -52 107.667 -92.333 173 -121s132 -43 200 -43c83.333 0 158.5 15.833 225.5 47.5s122.167 77.5 165.5 137.5h260z
M673.999 1591l204 348h201l-285 -348h-120z" />
    <glyph glyph-name="cacute" unicode="&#x107;" horiz-adv-x="1241" 
d="M1161 375c-46 -132.667 -114.332 -233.167 -204.999 -301.5s-201 -102.5 -331 -102.5c-82 0 -156.333 14.167 -223 42.5s-127 70.833 -181 127.5c-51.333 54 -91.5 116.833 -120.5 188.5s-43.5 144.834 -43.5 219.501c0 76.667 13.167 148.5 39.5 215.5
s65.166 128.167 116.499 183.5c56.667 60.667 120.334 106.667 191.001 138s146.334 47 227.001 47c126 0 235.333 -34.833 328 -104.5s160 -167.5 202 -293.5h-217c-34.667 67.333 -79.334 117.666 -134.001 150.999s-120 50 -196 50c-98 0 -181.167 -37 -249.5 -111
s-102.5 -165.333 -102.5 -274c0 -110 34.667 -201.667 104 -275s155.666 -110 258.999 -110c69.333 0 132 18.167 188 54.5s99.667 87.833 131 154.5h217zM494.001 1241l204 348h201l-285 -348h-120z" />
    <glyph glyph-name="Ccaron" unicode="&#x10c;" horiz-adv-x="1540" 
d="M1452 365c-63.333 -127.333 -150.834 -224.835 -262.501 -292.502s-241.167 -101.5 -388.5 -101.5c-109.333 0 -210.166 21 -302.499 63s-175.166 104.333 -248.499 187c-62 68.667 -109 146.834 -141 234.501s-48 181.5 -48 281.5c0 101.333 19.333 197.5 58 288.5
s95.334 173.833 170.001 248.5c70.667 69.333 149.167 121.833 235.5 157.5s179.166 53.5 278.499 53.5c149.333 0 280.5 -35.333 393.5 -106s198.167 -170.667 255.5 -300h-248c-46.667 64.667 -104 113.334 -172 146.001s-145 49 -231 49c-68.667 0 -134 -13 -196 -39
s-117 -63.667 -165 -113c-50 -51.333 -89 -111 -117 -179s-42 -137.333 -42 -208c0 -76 12.667 -147.833 38 -215.5s61.666 -126.167 108.999 -175.5c50 -52 107.667 -92.333 173 -121s132 -43 200 -43c83.333 0 158.5 15.833 225.5 47.5s122.167 77.5 165.5 137.5h260z
M521.999 1939h121l174 -227l172 227h123l-197 -348h-196z" />
    <glyph glyph-name="ccaron" unicode="&#x10d;" horiz-adv-x="1241" 
d="M1161 375c-46 -132.667 -114.332 -233.167 -204.999 -301.5s-201 -102.5 -331 -102.5c-82 0 -156.333 14.167 -223 42.5s-127 70.833 -181 127.5c-51.333 54 -91.5 116.833 -120.5 188.5s-43.5 144.834 -43.5 219.501c0 76.667 13.167 148.5 39.5 215.5
s65.166 128.167 116.499 183.5c56.667 60.667 120.334 106.667 191.001 138s146.334 47 227.001 47c126 0 235.333 -34.833 328 -104.5s160 -167.5 202 -293.5h-217c-34.667 67.333 -79.334 117.666 -134.001 150.999s-120 50 -196 50c-98 0 -181.167 -37 -249.5 -111
s-102.5 -165.333 -102.5 -274c0 -110 34.667 -201.667 104 -275s155.666 -110 258.999 -110c69.333 0 132 18.167 188 54.5s99.667 87.833 131 154.5h217zM342.001 1589h121l174 -227l172 227h123l-197 -348h-196z" />
    <glyph glyph-name="dcroat" unicode="&#x111;" horiz-adv-x="1341" 
d="M266 557c0 -112 36.999 -205.5 110.999 -280.5s164 -112.5 270 -112.5c96.667 0 182.334 37.833 257.001 113.5s112 164.167 112 265.5c0 108 -37 200.5 -111 277.5s-161.333 115.5 -262 115.5c-103.333 0 -192 -36.667 -266 -110s-111 -163 -111 -269zM1006 0v135.001
c-49.333 -52 -105.333 -91.667 -168 -119s-129.667 -41 -201 -41c-165.333 0 -302.666 55.333 -411.999 166s-164 248.667 -164 414c0 161.333 53.667 297.166 161 407.499s241.666 165.5 402.999 165.5c74 0 142.667 -13.333 206 -40s122.333 -67 177 -121v233h-293v119
h293v137h198v-137h150v-119h-150v-1200h-200z" />
    <glyph glyph-name="Gbreve" unicode="&#x11e;" horiz-adv-x="1612" 
d="M643 735h900.996c-10 -227.333 -83.667 -411.5 -221 -552.5s-311.333 -211.5 -522 -211.5c-109.333 0 -210.166 21 -302.499 63s-175.166 104.333 -248.499 187c-62 68.667 -109 146.834 -141 234.501s-48 181.5 -48 281.5c0 102 19.333 198.667 58 290
s95.334 173.666 170.001 246.999c70.667 70.667 149.667 123.5 237 158.5s184.333 52.5 291 52.5c147.333 0 276.5 -34.5 387.5 -103.5s194.833 -167.167 251.5 -294.5h-260c-48 62 -105.333 108.667 -172 140s-141 47 -223 47c-68.667 0 -134 -13 -196 -39
s-117 -63.667 -165 -113c-50 -51.333 -89 -111 -117 -179s-42 -137.333 -42 -208c0 -76 12.667 -147.833 38 -215.5s61.666 -126.167 108.999 -175.5c50 -52 107.667 -92.333 173 -121s132 -43 200 -43c110.667 0 208.334 29.5 293.001 88.5s154.334 146.167 209.001 261.5
h-660v205zM515.996 1904h109c3.33301 -48 19.666 -83.167 48.999 -105.5s73.666 -33.5 132.999 -33.5s103.833 11.5 133.5 34.5s45.834 57.833 48.501 104.5h109c-7.33301 -96 -34.333 -166.333 -81 -211s-116.667 -67 -210 -67c-94 0 -164.167 22.333 -210.5 67
s-73.166 115 -80.499 211z" />
    <glyph glyph-name="gbreve" unicode="&#x11f;" horiz-adv-x="1319" 
d="M133 -88l210.997 -0.000976562c30.667 -51.333 70.834 -90.5 120.501 -117.5s106.5 -40.5 170.5 -40.5c111.333 0 201 33.5 269 100.5s102 155.833 102 266.5v14c-50.667 -52.667 -107.167 -92.5 -169.5 -119.5s-128.833 -40.5 -199.5 -40.5
c-165.333 0 -302.666 55.167 -411.999 165.5s-164 248.5 -164 414.5c0 77.333 13.667 150.666 41 219.999s66.333 130.333 117 183c55.333 58 115.833 100.833 181.5 128.5s140.5 41.5 224.5 41.5c74.667 0 143.834 -13.333 207.501 -40s122.167 -67 175.5 -121v133h198
v-918c0 -191.333 -49.667 -341.166 -149 -449.499s-236 -162.5 -410 -162.5c-126 0 -233.667 29.833 -323 89.5s-153 143.834 -191 252.501zM265.997 556.999c0 -111.333 36.833 -204.667 110.5 -280s163.834 -113 270.501 -113c97.333 0 183.166 37.833 257.499 113.5
s111.5 164.167 111.5 265.5c0 108 -36.833 200.5 -110.5 277.5s-161.167 115.5 -262.5 115.5c-104 0 -192.833 -36.667 -266.5 -110s-110.5 -163 -110.5 -269zM367.997 1554h109c3.33301 -48 19.666 -83.167 48.999 -105.5s73.666 -33.5 132.999 -33.5
s103.833 11.5 133.5 34.5s45.834 57.833 48.501 104.5h109c-7.33301 -96 -34.333 -166.333 -81 -211s-116.667 -67 -210 -67c-94 0 -164.167 22.333 -210.5 67s-73.166 115 -80.499 211z" />
    <glyph glyph-name="Idotaccent" unicode="&#x130;" horiz-adv-x="465" 
d="M338 0h-211v1456h211v-1456zM137 1644v222h192v-222h-192z" />
    <glyph glyph-name="dotlessi" unicode="&#x131;" horiz-adv-x="432" 
d="M117 0v1100h196v-1100h-196z" />
    <glyph glyph-name="Lslash" unicode="&#x141;" horiz-adv-x="883" 
d="M840 0h-688v508l-152 -105v191l152 104v758h208v-625l240 168v-190l-240 -166v-442h480v-201z" />
    <glyph glyph-name="lslash" unicode="&#x142;" horiz-adv-x="487" 
d="M145 0v567l-145 -100v188l145 101v700h197v-588l145 105v-189l-145 -102v-682h-197z" />
    <glyph glyph-name="OE" unicode="&#x152;" horiz-adv-x="2179" 
d="M2048 0l-755.998 0.000976562v188c-68.667 -73.333 -145 -127.833 -229 -163.5s-179 -53.5 -285 -53.5c-105.333 0 -202.833 21 -292.5 63s-170.167 104.333 -241.5 187c-60 69.333 -105.5 147.5 -136.5 234.5s-46.5 180.833 -46.5 281.5c0 102 18.667 198.167 56 288.5
s92.666 173.166 165.999 248.499c68.667 69.333 144.834 121.833 228.501 157.5s173.167 53.5 268.5 53.5c105.333 0 199.166 -17.5 281.499 -52.5s159.166 -89.833 230.499 -164.5v188h756v-194h-545v-435h545v-190h-545v-436h545v-201zM274.002 735.001
c0 -75.333 12.498 -146.833 37.498 -214.5s60.5 -126.5 106.5 -176.5c48.667 -52 104.667 -92.333 168 -121s127.333 -43 192 -43c146 0 268.167 53.5 366.5 160.5s147.5 239.833 147.5 398.5c0 66.667 -11.5 130.834 -34.5 192.501s-57.167 119.167 -102.5 172.5
c-53.333 57.333 -111 100 -173 128s-130 42 -204 42c-66 0 -128.667 -13 -188 -39s-112.666 -63.667 -159.999 -113c-49.333 -52 -87.666 -111.833 -114.999 -179.5s-41 -136.834 -41 -207.501z" />
    <glyph glyph-name="oe" unicode="&#x153;" horiz-adv-x="2163" 
d="M1890 655c-24.667 90 -67.334 159.999 -128.001 209.999s-133.334 75 -218.001 75c-85.333 0 -160.166 -25.667 -224.499 -77s-108.166 -120.666 -131.499 -207.999h702zM260 548.999c0 -110 34.833 -201.668 104.5 -275.001s156.5 -110 260.5 -110
c102 0 187.5 36.833 256.5 110.5s103.5 165.834 103.5 276.501c0 111.333 -34.5 204 -103.5 278s-155.167 111 -258.5 111c-102 0 -188 -37.5 -258 -112.5s-105 -167.833 -105 -278.5zM1081 210.998c-58 -79.333 -125.168 -139.165 -201.501 -179.498
s-161.166 -60.5 -254.499 -60.5c-82.667 0 -157.5 14.167 -224.5 42.5s-127.5 70.833 -181.5 127.5c-52 54 -92.333 116.5 -121 187.5s-43 143.833 -43 218.5c0 77.333 13.167 150 39.5 218s65.166 129.667 116.499 185c55.333 59.333 117.5 104.666 186.5 135.999
s141.167 47 216.5 47c96.667 0 184.834 -21 264.501 -63s147.167 -102.333 202.5 -181c60.667 81.333 128.5 142.333 203.5 183s157.5 61 247.5 61c170 0 308 -57.833 414 -173.5s159 -266.834 159 -453.501v-29h-923c16 -94 56.833 -169.667 122.5 -227
s144.167 -86 235.5 -86c66 0 126.167 15.833 180.5 47.5s97.166 75.834 128.499 132.501h222c-53.333 -124 -124.166 -217.167 -212.499 -279.5s-193.833 -93.5 -316.5 -93.5c-100.667 0 -188.667 19.667 -264 59s-141 99.666 -197 180.999z" />
    <glyph glyph-name="Scedilla" unicode="&#x15e;" horiz-adv-x="973" 
d="M50 420h189.003c3.33301 -75.333 25.666 -135.5 66.999 -180.5s95 -67.5 161 -67.5c72.667 0 130.834 22.5 174.501 67.5s65.5 105.167 65.5 180.5c0 66 -16 117 -48 153s-99 69.667 -201 101l-27 7c-122 32.667 -210.333 86.334 -265 161.001
c-24.667 32.667 -43.167 67.5 -55.5 104.5s-18.5 76.5 -18.5 118.5c0 124.667 37 225.5 111 302.5s171 115.5 291 115.5c111.333 0 201.166 -34.5 269.499 -103.5s106.166 -163.5 113.499 -283.5h-197c-3.33301 58 -22.833 104.833 -58.5 140.5s-80.5 53.5 -134.5 53.5
c-58 0 -105.167 -19.833 -141.5 -59.5s-54.5 -90.834 -54.5 -153.501c0 -22 3.33301 -42.667 10 -62s17 -37.333 31 -54c28.667 -34 90 -63.333 184 -88c43.333 -11.333 76.666 -21 99.999 -29c96 -36 168.833 -88.333 218.5 -157s74.5 -151 74.5 -247
c0 -140.667 -40 -254 -120 -340s-186 -129 -318 -129c-124 0 -224.833 41.167 -302.5 123.5s-117.167 190.833 -118.5 325.5zM231.003 -426l-0.00292969 99.999c52.667 -12 100.334 -21.5 143.001 -28.5s77 -10.5 103 -10.5c40 0 70.167 6.83301 90.5 20.5
s30.5 34.167 30.5 61.5c0 29.333 -10.833 51 -32.5 65s-55.5 21 -101.5 21c-13.333 0 -23.666 -0.166992 -30.999 -0.5s-14.666 -0.5 -21.999 -0.5v198h76v-102h29c72.667 0 128 -15.333 166 -46s57 -75.667 57 -135c0 -60.667 -21.333 -107.167 -64 -139.5
s-104.667 -48.5 -186 -48.5c-33.333 0 -71.833 3.83301 -115.5 11.5s-91.167 18.834 -142.5 33.501z" />
    <glyph glyph-name="scedilla" unicode="&#x15f;" horiz-adv-x="797" 
d="M41 356l185.999 -0.00292969c0 -58 16.167 -105.833 48.5 -143.5s72.833 -56.5 121.5 -56.5c46 0 83.833 14.167 113.5 42.5s44.5 64.5 44.5 108.5c0 38.667 -10.5 71.334 -31.5 98.001s-54.833 49.334 -101.5 68.001c-16 6.66699 -38.667 15.334 -68 26.001
c-78 29.333 -127.667 52.666 -149 69.999c-39.333 31.333 -68.333 66.833 -87 106.5s-28 85.5 -28 137.5c0 89.333 31.167 165.333 93.5 228s138.5 94 228.5 94c94 0 168.667 -27.5 224 -82.5s85.666 -132.167 90.999 -231.5h-190
c-3.33301 40.667 -16.666 72.334 -39.999 95.001s-54.666 34 -93.999 34c-35.333 0 -64.833 -12.167 -88.5 -36.5s-35.5 -54.5 -35.5 -90.5c0 -61.333 53.333 -111.666 160 -150.999l71 -27c84 -34 143.833 -76.333 179.5 -127s53.5 -118.334 53.5 -203.001
c0 -98.667 -33.333 -180.667 -100 -246s-150.667 -98 -252 -98c-102 0 -184.333 34.333 -247 103s-97 162.667 -103 282zM142.999 -426.003l-0.00292969 99.999c52.667 -12 100.334 -21.5 143.001 -28.5s77 -10.5 103 -10.5c40 0 70.167 6.83301 90.5 20.5
s30.5 34.167 30.5 61.5c0 29.333 -10.833 51 -32.5 65s-55.5 21 -101.5 21c-13.333 0 -23.666 -0.166992 -30.999 -0.5s-14.666 -0.5 -21.999 -0.5v198h76v-102h29c72.667 0 128 -15.333 166 -46s57 -75.667 57 -135c0 -60.667 -21.333 -107.167 -64 -139.5
s-104.667 -48.5 -186 -48.5c-33.333 0 -71.833 3.83301 -115.5 11.5s-91.167 18.834 -142.5 33.501z" />
    <glyph glyph-name="Scaron" unicode="&#x160;" horiz-adv-x="973" 
d="M50 420h189.003c3.33301 -75.333 25.666 -135.5 66.999 -180.5s95 -67.5 161 -67.5c72.667 0 130.834 22.5 174.501 67.5s65.5 105.167 65.5 180.5c0 66 -16 117 -48 153s-99 69.667 -201 101l-27 7c-122 32.667 -210.333 86.334 -265 161.001
c-24.667 32.667 -43.167 67.5 -55.5 104.5s-18.5 76.5 -18.5 118.5c0 124.667 37 225.5 111 302.5s171 115.5 291 115.5c111.333 0 201.166 -34.5 269.499 -103.5s106.166 -163.5 113.499 -283.5h-197c-3.33301 58 -22.833 104.833 -58.5 140.5s-80.5 53.5 -134.5 53.5
c-58 0 -105.167 -19.833 -141.5 -59.5s-54.5 -90.834 -54.5 -153.501c0 -22 3.33301 -42.667 10 -62s17 -37.333 31 -54c28.667 -34 90 -63.333 184 -88c43.333 -11.333 76.666 -21 99.999 -29c96 -36 168.833 -88.333 218.5 -157s74.5 -151 74.5 -247
c0 -140.667 -40 -254 -120 -340s-186 -129 -318 -129c-124 0 -224.833 41.167 -302.5 123.5s-117.167 190.833 -118.5 325.5zM192.003 1939h121l174 -227l172 227h123l-197 -348h-196z" />
    <glyph glyph-name="scaron" unicode="&#x161;" horiz-adv-x="797" 
d="M41 356l185.999 -0.00292969c0 -58 16.167 -105.833 48.5 -143.5s72.833 -56.5 121.5 -56.5c46 0 83.833 14.167 113.5 42.5s44.5 64.5 44.5 108.5c0 38.667 -10.5 71.334 -31.5 98.001s-54.833 49.334 -101.5 68.001c-16 6.66699 -38.667 15.334 -68 26.001
c-78 29.333 -127.667 52.666 -149 69.999c-39.333 31.333 -68.333 66.833 -87 106.5s-28 85.5 -28 137.5c0 89.333 31.167 165.333 93.5 228s138.5 94 228.5 94c94 0 168.667 -27.5 224 -82.5s85.666 -132.167 90.999 -231.5h-190
c-3.33301 40.667 -16.666 72.334 -39.999 95.001s-54.666 34 -93.999 34c-35.333 0 -64.833 -12.167 -88.5 -36.5s-35.5 -54.5 -35.5 -90.5c0 -61.333 53.333 -111.666 160 -150.999l71 -27c84 -34 143.833 -76.333 179.5 -127s53.5 -118.334 53.5 -203.001
c0 -98.667 -33.333 -180.667 -100 -246s-150.667 -98 -252 -98c-102 0 -184.333 34.333 -247 103s-97 162.667 -103 282zM103.999 1589h121l174 -227l172 227h123l-197 -348h-196z" />
    <glyph glyph-name="Ydieresis" unicode="&#x178;" horiz-adv-x="1010" 
d="M608 524v-524h-211v537l-446 919h235l320 -700l319 700h234zM592 1650v209h184v-209h-184zM236 1650v209h184v-209h-184z" />
    <glyph glyph-name="Zcaron" unicode="&#x17d;" horiz-adv-x="973" 
d="M932 0h-893v207l637 1044h-596v205h840v-184l-660 -1071h672v-201zM192 1939h121l174 -227l172 227h123l-197 -348h-196z" />
    <glyph glyph-name="zcaron" unicode="&#x17e;" horiz-adv-x="825" 
d="M780 0h-760v160l531 760h-467v180h666v-203l-496 -711h526v-186zM119 1589h121l174 -227l172 227h123l-197 -348h-196z" />
    <glyph glyph-name="florin" unicode="&#x192;" horiz-adv-x="1171" 
d="M616 -47c-11.333 -139.333 -46.8301 -236.667 -106.497 -292s-158.5 -83 -296.5 -83c-6.66699 0 -16.834 0.333008 -30.501 1s-23.834 1 -30.501 1v182h41c75.333 0 127.666 13.833 156.999 41.5s47 82.167 53 163.5l66 752h-242v174h254l15 217
c9.33301 139.333 43 236.333 101 291s154.667 82 290 82c19.333 0 34 -0.166992 44 -0.5s19.667 -0.833008 29 -1.5l1 -178h-33c-78.667 0 -133 -13.333 -163 -40s-48.667 -83 -56 -169l-17 -201h262v-174h-272z" />
    <glyph glyph-name="circumflex" unicode="&#x2c6;" 
d="M217 1241l197 348h196l197 -348h-123l-172 229l-174 -229h-121z" />
    <glyph glyph-name="caron" unicode="&#x2c7;" 
d="M217 1589h121l174 -227l172 227h123l-197 -348h-196z" />
    <glyph glyph-name="breve" unicode="&#x2d8;" 
d="M221 1554h109c3.33301 -48 19.666 -83.167 48.999 -105.5s73.666 -33.5 132.999 -33.5s103.833 11.5 133.5 34.5s45.834 57.833 48.501 104.5h109c-7.33301 -96 -34.333 -166.333 -81 -211s-116.667 -67 -210 -67c-94 0 -164.167 22.333 -210.5 67
s-73.166 115 -80.499 211z" />
    <glyph glyph-name="dotaccent" unicode="&#x2d9;" 
d="M416 1294v222h192v-222h-192z" />
    <glyph glyph-name="ring" unicode="&#x2da;" 
d="M377 1475c0 -38 13.002 -70.1689 39.002 -96.502s58 -39.5 96 -39.5c37.333 0 69.166 13.167 95.499 39.5s39.5 58.5 39.5 96.5c0 36.667 -13.333 68.334 -40 95.001s-58.334 40 -95.001 40c-38 0 -70 -13.167 -96 -39.5s-39 -58.166 -39 -95.499zM260.002 1475
c0 70.667 24.333 130.667 73 180s108.334 74 179.001 74s130.667 -24.667 180 -74s74 -109.333 74 -180s-24.667 -130.334 -74 -179.001s-109.333 -73 -180 -73s-130.334 24.333 -179.001 73s-73 108.334 -73 179.001z" />
    <glyph glyph-name="ogonek" unicode="&#x2db;" 
d="M608 0c-47.333 -42 -82.001 -80.832 -104.001 -116.499s-33 -70.5 -33 -104.5c0 -28.667 7 -48.834 21 -60.501s39 -17.5 75 -17.5h84v-143h-86c-75.333 0 -131.666 14 -168.999 42s-56 70 -56 126c0 44 14.5 87.5 43.5 130.5s76.5 90.833 142.5 143.5h82z" />
    <glyph glyph-name="tilde" unicode="&#x2dc;" 
d="M805 1518c-13.333 -67.333 -36.833 -118.668 -70.5 -154.001s-75.834 -53 -126.501 -53c-9.33301 0 -19.5 0.833008 -30.5 2.5s-22.5 4.16699 -34.5 7.5l-97 27c-8.66699 2.66699 -17.167 4.66699 -25.5 6s-16.166 2 -23.499 2c-20.667 0 -38.5 -5.83301 -53.5 -17.5
s-27.167 -29.167 -36.5 -52.5h-88c12 66.667 34.667 117.834 68 153.501s75 53.5 125 53.5c11.333 0 22 -0.666992 32 -2s19 -3.33301 27 -6l99 -29c10 -2.66699 19.333 -4.66699 28 -6s17 -2 25 -2c22 0 40.833 5.66699 56.5 17s28.167 29 37.5 53h88z" />
    <glyph glyph-name="hungarumlaut" unicode="&#x2dd;" 
d="M569 1241l166 348h176l-245 -348h-97zM311 1241l138 348h178l-219 -348h-97z" />
    <glyph glyph-name="Omega" unicode="&#x3a9;" horiz-adv-x="1565" 
d="M1487 178l-0.00195312 -178h-600v178c118 64.667 210 152.334 276 263.001s99 233.334 99 368.001c0 160 -44 288.333 -132 385s-204 145 -348 145s-260.167 -48.5 -348.5 -145.5s-132.5 -225.167 -132.5 -384.5c0 -134.667 33.167 -257.334 99.5 -368.001
s158.833 -198.334 277.5 -263.001v-178h-600v178h319c-105.333 92.667 -182.166 188.667 -230.499 288s-72.5 210.333 -72.5 333c0 212 63.833 383.667 191.5 515s293.167 197 496.5 197c202 0 367.167 -65.5 495.5 -196.5s192.5 -299.5 192.5 -505.5
c0 -129.333 -23.667 -243.333 -71 -342s-124.666 -195 -231.999 -289h320z" />
    <glyph glyph-name="pi" unicode="&#x3c0;" horiz-adv-x="1206" 
d="M1159 913h-182.002l-105 -487c-10 -49.333 -17.5 -89.333 -22.5 -120s-7.5 -53.334 -7.5 -68.001c0 -38.667 7.83301 -66.167 23.5 -82.5s41.834 -24.5 78.501 -24.5c11.333 0 24.666 0.833008 39.999 2.5s35.333 4.16699 60 7.5l-30 -141
c-20 -5.33301 -39.167 -9.33301 -57.5 -12s-36.166 -4 -53.499 -4c-78.667 0 -138.167 17 -178.5 51s-60.5 84.333 -60.5 151c0 30.667 3.5 70 10.5 118s21.833 125.667 44.5 233l80 376h-326l-194 -913h-181l195 913h-41c-36 0 -64 -10.667 -84 -32s-33 -55 -39 -101h-160
c18.667 110.667 51.834 186.834 99.501 228.501s126.5 62.5 236.5 62.5h889z" />
    <glyph glyph-name="endash" unicode="&#x2013;" 
d="M0 477v144h1024v-144h-1024z" />
    <glyph glyph-name="emdash" unicode="&#x2014;" horiz-adv-x="2048" 
d="M0 477v144h2048v-144h-2048z" />
    <glyph glyph-name="quoteleft" unicode="&#x2018;" horiz-adv-x="473" 
d="M338 991l-203 -0.000976562v217c0 83.333 15.667 146.166 47 188.499s83.333 71.833 156 88.5v-133c-25.333 -7.33301 -43.333 -18.666 -54 -33.999s-16 -37.666 -16 -66.999v-18h70v-242z" />
    <glyph glyph-name="quoteright" unicode="&#x2019;" horiz-adv-x="473" 
d="M135 1456l203 0.000976562v-217c0 -83.333 -15.667 -146 -47 -188s-83.333 -71.333 -156 -88v131c25.333 6.66699 43.333 17.667 54 33s16 37.666 16 66.999v18h-70v244z" />
    <glyph glyph-name="quotesinglbase" unicode="&#x201a;" horiz-adv-x="473" 
d="M135 246l203 0.000976562v-217c0 -83.333 -15.667 -146.166 -47 -188.499s-83.333 -71.833 -156 -88.5v131c25.333 7.33301 43.333 18.666 54 33.999s16 37.666 16 66.999v18h-70v244z" />
    <glyph glyph-name="quotedblleft" unicode="&#x201c;" horiz-adv-x="807" 
d="M338 991l-203 -0.000976562v217c0 83.333 15.667 146.166 47 188.499s83.333 71.833 156 88.5v-133c-25.333 -7.33301 -43.333 -18.666 -54 -33.999s-16 -37.666 -16 -66.999v-18h70v-242zM670 990.999l-203 -0.000976562v217c0 83.333 15.667 146.166 47 188.499
s83.333 71.833 156 88.5v-133c-25.333 -7.33301 -43.333 -18.666 -54 -33.999s-16 -37.666 -16 -66.999v-18h70v-242z" />
    <glyph glyph-name="quotedblright" unicode="&#x201d;" horiz-adv-x="807" 
d="M467 1456l203 0.000976562v-217c0 -83.333 -15.667 -146 -47 -188s-83.333 -71.333 -156 -88v131c25.333 6.66699 43.333 17.667 54 33s16 37.666 16 66.999v18h-70v244zM135 1456l203 0.000976562v-217c0 -83.333 -15.667 -146 -47 -188s-83.333 -71.333 -156 -88v131
c25.333 6.66699 43.333 17.667 54 33s16 37.666 16 66.999v18h-70v244z" />
    <glyph glyph-name="quotedblbase" unicode="&#x201e;" horiz-adv-x="807" 
d="M467 246l203 0.000976562v-217c0 -83.333 -15.667 -146.166 -47 -188.499s-83.333 -71.833 -156 -88.5v131c25.333 7.33301 43.333 18.666 54 33.999s16 37.666 16 66.999v18h-70v244zM135 246.001l203 0.000976562v-217c0 -83.333 -15.667 -146.166 -47 -188.499
s-83.333 -71.833 -156 -88.5v131c25.333 7.33301 43.333 18.666 54 33.999s16 37.666 16 66.999v18h-70v244z" />
    <glyph glyph-name="dagger" unicode="&#x2020;" 
d="M414 -233v1122h-355v172h355v395h196v-395h355v-172h-355v-1122h-196z" />
    <glyph glyph-name="daggerdbl" unicode="&#x2021;" 
d="M414 -233v393h-355v172h355v557h-355v172h355v395h196v-395h355v-172h-355v-557h355v-172h-355v-393h-196z" />
    <glyph glyph-name="bullet" unicode="&#x2022;" horiz-adv-x="1208" 
d="M307 762c0 82 28.999 151.666 86.999 208.999s128 86 210 86c81.333 0 150.833 -28.833 208.5 -86.5s86.5 -127.167 86.5 -208.5s-29.167 -151.166 -87.5 -209.499s-128.166 -87.5 -209.499 -87.5c-82 0 -151.667 29 -209 87s-86 128 -86 210z" />
    <glyph glyph-name="ellipsis" unicode="&#x2026;" horiz-adv-x="2048" 
d="M442 0h-200v246h200v-246zM1124 0h-200v246h200v-246zM1808 0h-200v246h200v-246z" />
    <glyph glyph-name="perthousand" unicode="&#x2030;" horiz-adv-x="2654" 
d="M2015 330c0 -56 19 -103.167 57 -141.5s84.667 -57.5 140 -57.5s102.166 19.333 140.5 58c38.333 38.667 57.5 85.667 57.5 141c0 54.667 -19.167 101 -57.5 139s-85.166 57 -140.5 57c-55.333 0 -102 -18.833 -140 -56.5s-57 -84.167 -57 -139.5zM1855 330
c0 47.333 9.33301 92.832 28 136.499s45 82.834 79 117.501c34 33.333 72.833 59 116.5 77s89.5 27 137.5 27s93.833 -9 137.5 -27s82.5 -43.667 116.5 -77c34 -34 59.833 -72.833 77.5 -116.5s26.5 -89.5 26.5 -137.5c0 -48.667 -8.83301 -94.667 -26.5 -138
s-43.5 -82 -77.5 -116s-72.833 -60 -116.5 -78s-89.5 -27 -137.5 -27s-93.833 9 -137.5 27s-82.5 44 -116.5 78s-60.333 72.833 -79 116.5s-28 89.5 -28 137.5zM240 1126c0 -54.667 19.167 -101 57.5 -139s85.166 -57 140.499 -57s102 18.833 140 56.5s57 84.167 57 139.5
s-19 102 -57 140s-84.667 57 -140 57s-102.166 -19 -140.499 -57s-57.5 -84.667 -57.5 -140zM82 1126c0 48.667 9 94.834 27 138.501s43.667 82.167 77 115.5c34 34 72.833 60 116.5 78s89.5 27 137.5 27c48.667 0 94.834 -9 138.501 -27s82.167 -44 115.5 -78
c34 -33.333 60 -71.833 78 -115.5s27 -89.834 27 -138.501s-9 -94.5 -27 -137.5s-44 -81.833 -78 -116.5c-33.333 -33.333 -71.833 -59 -115.5 -77s-89.834 -27 -138.501 -27c-48 0 -93.833 9 -137.5 27s-82.5 43.667 -116.5 77c-33.333 34 -59 72.833 -77 116.5
s-27 89.5 -27 137.5zM1217 1485h141l-776 -1516h-146zM1155 329.999c0 -55.333 19.333 -102.333 58 -141s85.667 -58 141 -58c54.667 0 101 19.167 139 57.5s57 85.5 57 141.5c0 55.333 -18.833 101.833 -56.5 139.5s-84.167 56.5 -139.5 56.5
c-56 0 -103.167 -19 -141.5 -57s-57.5 -84.333 -57.5 -139zM997 329.999c0 48 9 93.832 27 137.499s44 82.5 78 116.5c33.333 33.333 71.833 59 115.5 77s89.834 27 138.501 27c48 0 93.833 -9 137.5 -27s82.5 -43.667 116.5 -77c33.333 -34 59 -72.833 77 -116.5
s27 -89.5 27 -137.5c0 -48.667 -8.83301 -94.667 -26.5 -138s-43.5 -82 -77.5 -116s-72.833 -60 -116.5 -78s-89.5 -27 -137.5 -27c-48.667 0 -94.834 9 -138.501 27s-82.167 44 -115.5 78c-34 33.333 -60 71.833 -78 115.5s-27 89.834 -27 138.501z" />
    <glyph glyph-name="guilsinglleft" unicode="&#x2039;" horiz-adv-x="678" 
d="M524 238h-149l-248 313l248 311h149l-241 -313z" />
    <glyph glyph-name="guilsinglright" unicode="&#x203a;" horiz-adv-x="678" 
d="M154 238l241 311l-241 313h149l248 -311l-248 -313h-149z" />
    <glyph glyph-name="franc" unicode="&#x20a3;" horiz-adv-x="1569" 
d="M123 0v1456h717v-194h-508v-435h508v-190h-508v-637h-209zM1294 0l-198 -0.000976562v1100h186v-127c32.667 48.667 70.167 84.834 112.5 108.501s91.5 35.834 147.5 36.501v-207c-88.667 -6.66699 -152.167 -32.834 -190.5 -78.501s-57.5 -119.167 -57.5 -220.5v-612z
" />
    <glyph glyph-name="trademark" unicode="&#x2122;" horiz-adv-x="1706" 
d="M963 1458l151 -385l141 385h150v-538h-98v444l-166 -444h-56l-174 444v-444h-98v538h150zM694 1458v-80h-172v-458h-108v458h-172v80h452z" />
    <glyph glyph-name="partialdiff" unicode="&#x2202;" horiz-adv-x="1059" 
d="M756 621c10 58 17.502 114.164 22.502 168.497s7.5 106.5 7.5 156.5c0 86 -12.167 150.833 -36.5 194.5s-60.5 65.5 -108.5 65.5c-36.667 0 -79 -19.333 -127 -58s-84 -58 -108 -58s-44 7.33301 -60 22s-24 32.334 -24 53.001c0 41.333 24 78.333 72 111
s105.667 49 173 49c120 0 215.667 -51.667 287 -155s107 -242.666 107 -417.999c0 -223.333 -48.167 -408.666 -144.5 -555.999s-215.5 -221 -357.5 -221c-101.333 0 -185.833 36 -253.5 108s-101.5 162.333 -101.5 271c0 132 36.833 240.833 110.5 326.5
s164.5 128.5 272.5 128.5c67.333 0 122.666 -15.167 165.999 -45.5s77.666 -77.833 102.999 -142.5zM707.002 493.997c0 77.333 -14.5 136.833 -43.5 178.5s-69.833 62.5 -122.5 62.5c-72.667 0 -132.5 -43 -179.5 -129s-70.5 -198 -70.5 -336
c0 -77.333 14.333 -136.5 43 -177.5s69.667 -61.5 123 -61.5c72.667 0 132.5 43.333 179.5 130s70.5 197.667 70.5 333z" />
    <glyph glyph-name="Delta" unicode="&#x2206;" horiz-adv-x="1370" 
d="M1102 178l-418 1084l-418 -1084h836zM797 1473l579 -1473h-1382l579 1473h224z" />
    <glyph glyph-name="product" unicode="&#x220f;" horiz-adv-x="1550" 
d="M156 1473h1237v-1866h-240v1661h-758v-1661h-239v1866z" />
    <glyph glyph-name="summation" unicode="&#x2211;" horiz-adv-x="1380" 
d="M55 1473h1258v-193h-959l672 -717l-694 -764h1007v-192h-1314v149l725 801l-695 739v177z" />
    <glyph glyph-name="minus" unicode="&#x2212;" horiz-adv-x="1706" 
d="M1452 682v-141h-1198v141h1198z" />
    <glyph glyph-name="fraction" unicode="&#x2215;" horiz-adv-x="342" 
d="M539 1485h143l-879 -1514h-145z" />
    <glyph glyph-name="periodcentered" unicode="&#x2219;" horiz-adv-x="586" 
d="M180 729c0 30.667 11 56.834 33 78.501s48.667 32.5 80 32.5c30.667 0 56.667 -10.833 78 -32.5s32 -47.834 32 -78.501c0 -31.333 -10.667 -58 -32 -80s-47.333 -33 -78 -33c-31.333 0 -58 11 -80 33s-33 48.667 -33 80z" />
    <glyph glyph-name="radical" unicode="&#x221a;" horiz-adv-x="1305" 
d="M1305 1661v-96h-115l-594 -1606h-66l-319 883l-125 -45l-25 80l283 98l256 -709l516 1395h189z" />
    <glyph glyph-name="infinity" unicode="&#x221e;" horiz-adv-x="1706" 
d="M915 559c33.333 -59.333 72.166 -103.834 116.499 -133.501s94.5 -44.5 150.5 -44.5c67.333 0 122.333 22.5 165 67.5s64 102.5 64 172.5c0 67.333 -19.667 123.333 -59 168s-88.666 67 -147.999 67c-54 0 -102.833 -22.167 -146.5 -66.5
s-91.167 -121.166 -142.5 -230.499zM793 665.999c-32.667 58.667 -71.166 102.667 -115.499 132s-94.833 44 -151.5 44c-67.333 0 -122.333 -22.167 -165 -66.5s-64 -101.5 -64 -171.5c0 -67.333 19.667 -123.333 59 -168s88.666 -67 147.999 -67c54 0 102.833 22 146.5 66
s91.167 121 142.5 231zM842.001 736.999c45.333 92 94.332 159.833 146.999 203.5s111.334 65.5 176.001 65.5c88.667 0 164.5 -37.667 227.5 -113s94.5 -168.333 94.5 -279c0 -116 -27.833 -209.833 -83.5 -281.5s-128.167 -107.5 -217.5 -107.5
c-63.333 0 -119.5 19.5 -168.5 58.5s-100.167 105.5 -153.5 199.5c-47.333 -90.667 -96.833 -157 -148.5 -199s-109.167 -63 -172.5 -63c-90 0 -166.167 37.333 -228.5 112s-93.5 167 -93.5 277c0 116.667 27.833 211 83.5 283s128.167 108 217.5 108
c63.333 0 120 -20.5 170 -61.5s100 -108.5 150 -202.5z" />
    <glyph glyph-name="integral" unicode="&#x222b;" horiz-adv-x="1067" 
d="M311 -262c70.667 0 110.668 229.334 120.001 688.001l3 165c8 343.333 43.667 589 107 737s162.333 222 297 222c53.333 0 96.666 -14 129.999 -42s50 -63.667 50 -107c0 -36 -10.667 -64.5 -32 -85.5s-50.333 -31.5 -87 -31.5c-28 0 -51.333 6.33301 -70 19
s-32 30.667 -40 54c-4 10 -7.5 27 -10.5 51s-9.83301 36 -20.5 36c-71.333 0 -111.666 -206.333 -120.999 -619c-2.66699 -128.667 -5.33398 -229.667 -8.00098 -303c-11.333 -319.333 -48.5 -548 -111.5 -686s-159.833 -207 -290.5 -207
c-52.667 0 -95.834 13.833 -129.501 41.5s-50.5 63.167 -50.5 106.5c0 37.333 11.333 66.5 34 87.5s54.334 31.5 95.001 31.5c22 0 41 -4.83301 57 -14.5s29 -23.834 39 -42.501c6.66699 -12 11.667 -31.833 15 -59.5s11.333 -41.5 24 -41.5z" />
    <glyph glyph-name="approxequal" unicode="&#x2248;" horiz-adv-x="1706" 
d="M1530 430c-70 -48.667 -136.498 -84.334 -199.498 -107.001s-126.167 -34 -189.5 -34s-158.333 22.5 -285 67.5s-224.334 67.5 -293.001 67.5c-54.667 0 -111.834 -12 -171.501 -36s-130.834 -64.667 -213.501 -122v156c72 48.667 140 85 204 109s125 36 183 36
c76.667 0 178.334 -22.833 305.001 -68.5s217.667 -68.5 273 -68.5c58.667 0 117.667 11.833 177 35.5s129.333 63.834 210 120.501v-156zM1530 799c-70 -48.667 -136.498 -84.5 -199.498 -107.5s-126.167 -34.5 -189.5 -34.5s-158.333 22.667 -285 68
s-224.334 68 -293.001 68c-55.333 0 -112.5 -12 -171.5 -36s-130.167 -64.667 -213.5 -122v156c70.667 48 138 83.833 202 107.5s125.667 35.5 185 35.5c77.333 0 179.166 -22.5 305.499 -67.5s217.166 -67.5 272.499 -67.5c58 0 116.333 11.5 175 34.5
s129.334 63.167 212.001 120.5v-155z" />
    <glyph glyph-name="notequal" unicode="&#x2260;" horiz-adv-x="1706" 
d="M1313 1112l-187 -235h326v-136h-416l-205 -262h621v-135h-709l-249 -317l-105 84l184 233h-319v135h408l204 262h-612v136h702l252 317z" />
    <glyph glyph-name="lessequal" unicode="&#x2264;" horiz-adv-x="1706" 
d="M1446 162v-139h-1184v139h1184zM1444 1059l-936 -309l936 -306v-149l-1182 395v121l1182 395v-147z" />
    <glyph glyph-name="greaterequal" unicode="&#x2265;" horiz-adv-x="1706" 
d="M1446 162v-139h-1184v139h1184zM1446 811v-121l-1184 -395v149l938 306l-938 309v147z" />
    <glyph glyph-name="lozenge" unicode="&#x25ca;" horiz-adv-x="1012" 
d="M506 1409l-385 -817l385 -825l385 825zM506 1653l500 -1061l-500 -1069l-500 1069z" />
    <glyph glyph-name="apple" unicode="&#xf000;" horiz-adv-x="1618" 
d="M836 1216c-0.666992 4 -1.16699 8.66895 -1.5 14.002s-0.5 13 -0.5 23c0 82.667 31.667 159.167 95 229.5s142 114.166 236 131.499c0.666992 -6.66699 1.16699 -14.334 1.5 -23.001s0.5 -21.667 0.5 -39c0 -87.333 -34.5 -165.5 -103.5 -234.5
s-136.833 -103.5 -203.5 -103.5h-8c-2 0 -4.5 0.333008 -7.5 1s-5.83301 1 -8.5 1zM1505 403.002c-76 -164.667 -144.336 -278.834 -205.003 -342.501s-128.667 -95.5 -204 -95.5c-33.333 0 -77.166 11 -131.499 33s-95.166 33 -122.499 33c-30 0 -73.667 -11 -131 -33
s-99.666 -33 -126.999 -33c-42.667 0 -85.5 14.667 -128.5 44s-86.167 73.333 -129.5 132c-68 93.333 -120.5 191.833 -157.5 295.5s-55.5 203.834 -55.5 300.501c0 146 41.667 264.833 125 356.5s191 137.5 323 137.5c45.333 0 97 -11.333 155 -34s99.333 -34 124 -34
c22.667 0 63.167 11.667 121.5 35s109.166 35 152.499 35c73.333 0 139.333 -13.333 198 -40s112.334 -68 161.001 -124c-68 -43.333 -118.5 -91.833 -151.5 -145.5s-49.5 -114.5 -49.5 -182.5c0 -75.333 20 -142 60 -200s97.667 -104 173 -138z" />
    <glyph glyph-name="fi" unicode="&#xf001;" horiz-adv-x="991" 
d="M670 0v1100h196v-1100h-196zM362 0l-194 -0.000976562v928h-131v172h123v33c0 112.667 31.333 197.5 94 254.5s156.334 85.5 281.001 85.5v-183h-17c-58.667 0 -100.334 -13.167 -125.001 -39.5s-37 -71.166 -37 -134.499v-16h179v-172h-173v-928zM866 1229h-196v227h196
v-227z" />
    <glyph glyph-name="fl" unicode="&#xf002;" horiz-adv-x="991" 
d="M362 0l-194 -0.000976562v928h-133v172h125v33c0 112.667 31.333 197.5 94 254.5s156.334 85.5 281.001 85.5v-183h-17c-58.667 0 -100.334 -13.167 -125.001 -39.5s-37 -71.166 -37 -134.499v-16h179v-172h-173v-928zM670 -0.000976562v1456h196v-1456h-196z" />
    <glyph glyph-name=".null" horiz-adv-x="0" 
 />
    <glyph glyph-name="nonmarkingreturn" horiz-adv-x="586" 
 />
    </font>
</defs>
</svg>
